<svg width="12" height="12" viewBox="0 0 12 12" fill="none" xmlns="http://www.w3.org/2000/svg">
<rect x="0.580202" y="0.668093" width="10.5639" height="10.5676" rx="5.28193" stroke="black" stroke-width="0.217534"/>
<path d="M7.35639 6.12299C7.35016 5.44291 7.9231 5.11205 7.9493 5.09665C7.62482 4.6318 7.12188 4.56829 6.94515 4.56322C6.52275 4.51955 6.11301 4.81158 5.89784 4.81158C5.67837 4.81158 5.34702 4.56744 4.9899 4.57462C4.53034 4.58158 4.10042 4.84302 3.86463 5.249C3.37802 6.07678 3.74094 7.29324 4.20715 7.96234C4.44036 8.29004 4.71287 8.65592 5.06957 8.64305C5.41853 8.62891 5.54888 8.42445 5.96999 8.42445C6.38724 8.42445 6.50965 8.64305 6.87342 8.63482C7.24794 8.62891 7.48373 8.30565 7.70878 7.975C7.97829 7.59941 8.08652 7.22951 8.09081 7.21052C8.08201 7.20757 7.36347 6.93811 7.35639 6.12299Z" fill="black"/>
<path d="M6.6692 4.12306C6.85689 3.89243 6.98531 3.57866 6.94966 3.26025C6.67801 3.27207 6.33828 3.44489 6.14265 3.67045C5.96956 3.86922 5.81495 4.19502 5.85489 4.5014C6.16004 4.52377 6.47335 4.35011 6.6692 4.12306Z" fill="black"/>
</svg>
