<svg width="12" height="12" viewBox="0 0 12 12" fill="none" xmlns="http://www.w3.org/2000/svg">
<rect x="0.920187" y="0.650656" width="10.6026" height="10.6026" rx="5.30132" stroke="black" stroke-width="0.178753"/>
<g clip-path="url(#clip0_178_143)">
<path d="M4.44057 3.98804C4.38324 4.06366 4.35132 4.15668 4.35132 4.25623V8.19649C4.35132 8.28896 4.37895 8.37582 4.42886 8.44839L6.57699 6.21213L4.44057 3.98804Z" fill="black"/>
<path d="M6.77357 6.0071L7.47045 5.28164L5.02083 3.87014C4.91451 3.80886 4.79253 3.79433 4.67871 3.82626L6.77357 6.0071Z" fill="black"/>
<path d="M6.7735 6.41675L4.65747 8.6196C4.70309 8.6349 4.75031 8.64261 4.79756 8.64261C4.87421 8.64261 4.9509 8.62248 5.02076 8.58221L7.488 7.16053L6.7735 6.41675Z" fill="black"/>
<path d="M8.44003 5.84018L7.72386 5.42749L6.97046 6.21176L7.74145 7.01443L8.44003 6.61188C8.57982 6.53135 8.66327 6.38708 8.66327 6.22603C8.66327 6.06494 8.57982 5.9207 8.44003 5.84018Z" fill="black"/>
</g>
<defs>
<clipPath id="clip0_178_143">
<rect width="4.83266" height="4.83266" fill="white" transform="translate(4.08179 3.80981)"/>
</clipPath>
</defs>
</svg>
