<svg width="58" height="14" viewBox="0 0 58 14" fill="none" xmlns="http://www.w3.org/2000/svg">
<path d="M9.87533 2.26027L11.7766 2.6582C12.0207 2.70916 12.2399 2.84178 12.398 3.03408C12.556 3.22638 12.6435 3.4668 12.6457 3.71545L12.6638 5.65433C12.6655 5.82132 12.7055 5.9857 12.7808 6.13482L13.6572 7.86745C13.7694 8.0895 13.8021 8.34312 13.7499 8.58625C13.6977 8.82938 13.5637 9.04741 13.3702 9.20419L11.8618 10.4271C11.7317 10.5324 11.6277 10.666 11.5579 10.8178L10.7455 12.5793C10.6413 12.8055 10.4626 12.9893 10.2391 13.1002C10.0156 13.2111 9.7608 13.2425 9.517 13.189L7.61802 12.775C7.45394 12.7392 7.2838 12.7415 7.12075 12.7818L5.23347 13.2465C4.99145 13.3062 4.73624 13.2815 4.51018 13.1767C4.28412 13.0718 4.10079 12.8931 3.99059 12.67L3.13383 10.9307C3.0598 10.7809 2.9522 10.6502 2.81938 10.5485L1.27843 9.3661C1.08094 9.21437 0.941369 8.99988 0.882849 8.7582C0.824329 8.51651 0.850372 8.26214 0.956664 8.03724L1.78389 6.28273C1.85509 6.13164 1.89052 5.96625 1.88743 5.79933L1.85321 3.86073C1.84897 3.61227 1.92995 3.36982 2.08272 3.17352C2.2355 2.97722 2.45091 2.83884 2.6933 2.78131L4.58439 2.33232C4.74732 2.29376 4.89915 2.21829 5.02813 2.11177L6.52637 0.876266C6.71853 0.717848 6.95919 0.629662 7.20848 0.626319C7.45776 0.622977 7.70071 0.704678 7.89708 0.857887L9.42808 2.05401C9.55952 2.15575 9.71247 2.22629 9.87533 2.26027Z" fill="url(#paint0_linear_178_128)"/>
<path d="M4.97886 13.3826C4.75446 13.3825 4.53452 13.32 4.34371 13.2022C4.15291 13.0844 3.99878 12.9159 3.89861 12.7156L3.03893 10.9769C2.97196 10.8417 2.87491 10.7236 2.75519 10.6315L1.21424 9.44965C0.998185 9.28254 0.845441 9.0472 0.781031 8.78219C0.716621 8.51717 0.744365 8.2382 0.859718 7.99096L1.68694 6.23646C1.75125 6.09963 1.78337 5.94995 1.78084 5.79885L1.74632 3.86026C1.74324 3.5882 1.83269 3.32312 2.00008 3.10827C2.16747 2.89343 2.40293 2.7415 2.66802 2.67727L4.55911 2.22829C4.70611 2.1932 4.84316 2.12515 4.95985 2.02932L6.45809 0.793816C6.66941 0.621121 6.93323 0.525062 7.20641 0.521352C7.47958 0.517642 7.74593 0.606502 7.96189 0.773395L9.49289 1.96952C9.61199 2.06225 9.75076 2.12661 9.89861 2.15769L11.7999 2.55562C12.067 2.61274 12.3068 2.75859 12.48 2.96931C12.6532 3.18003 12.7495 3.44313 12.7532 3.71556L12.7714 5.65444C12.7728 5.80517 12.8088 5.95357 12.8767 6.08826L13.751 7.81972C13.8727 8.06366 13.9078 8.34156 13.8506 8.608C13.7935 8.87444 13.6474 9.11366 13.4362 9.28657L11.9275 10.5095C11.8104 10.6047 11.7166 10.7254 11.6534 10.8622L10.8425 12.6226C10.7272 12.8695 10.5314 13.0701 10.287 13.1916C10.0426 13.3132 9.7641 13.3485 9.49699 13.2918L7.59713 12.8776C7.44945 12.8455 7.29637 12.8475 7.14958 12.8834L5.2623 13.3484C5.16954 13.3711 5.07437 13.3826 4.97886 13.3826ZM7.22271 0.732552C6.9931 0.731978 6.77048 0.811319 6.59323 0.956897L5.09499 2.1924C4.95339 2.30904 4.78688 2.39177 4.60825 2.43425L2.71716 2.88324C2.49875 2.93637 2.30483 3.06175 2.16703 3.23892C2.02923 3.41609 1.95569 3.6346 1.95839 3.8588L1.99291 5.79594C1.99601 5.97907 1.95709 6.16048 1.87912 6.32631L1.0519 8.08082C0.957466 8.28435 0.934977 8.51379 0.988101 8.73171C1.04122 8.94963 1.16682 9.14316 1.34441 9.28073L2.88477 10.4637C3.03014 10.5756 3.14799 10.7191 3.22935 10.8832L4.08904 12.6226C4.18962 12.8231 4.35533 12.9837 4.55915 13.0782C4.76297 13.1727 4.99288 13.1955 5.2114 13.143L7.09869 12.6783C7.27701 12.6345 7.46303 12.632 7.64247 12.671L9.54174 13.085C9.76152 13.1316 9.99065 13.1026 10.1918 13.0028C10.393 12.9029 10.5543 12.738 10.6495 12.5351L11.4618 10.7736C11.5388 10.6072 11.6528 10.4607 11.7952 10.345L13.3037 9.12174C13.4774 8.97934 13.5975 8.78248 13.6446 8.56325C13.6916 8.34402 13.6628 8.11535 13.5629 7.91453L12.6886 6.18278C12.6062 6.01909 12.5623 5.83877 12.5605 5.65561L12.5423 3.71702C12.5391 3.49281 12.4597 3.27632 12.3172 3.10286C12.1748 2.9294 11.9776 2.8092 11.7578 2.76187L9.85648 2.36394C9.67677 2.32616 9.50809 2.24793 9.36331 2.13522L7.83084 0.940268C7.65713 0.805145 7.44301 0.732009 7.22271 0.732552Z" fill="white"/>
<path d="M7.23517 2.0835L3.09204 4.46932V9.24097L7.23517 11.6268L11.3786 9.24097V4.46932L7.23517 2.0835Z" fill="white"/>
<path d="M10.1619 8.90312V9.33169L7.32339 10.0397L4.48486 9.3311V8.90283L7.32339 9.61117L10.1619 8.90312Z" fill="black"/>
<path d="M10.2879 4.61939L10.2873 8.87204L7.32329 9.6113H7.323V3.88013L10.2879 4.61939Z" fill="black"/>
<path d="M7.32271 3.88013V9.6113L4.3584 8.87145L4.35869 4.61939L7.32271 3.88013Z" fill="#232222"/>
<path d="M4.55078 9.27741V9.13184L7.3232 9.82383L10.0953 9.13184V9.278L7.3232 9.9697L4.55078 9.27741Z" fill="white"/>
<path d="M4.55078 9.06506V8.91919L7.3232 9.61119L10.0953 8.91948V9.06564L7.3232 9.75706L4.55078 9.06506Z" fill="white"/>
<path d="M4.69946 4.61237L7.32358 3.95801L9.9474 4.61237L7.323 5.26703L4.69946 4.61237Z" fill="white"/>
<path d="M4.44043 5.78032V5.45679L7.30265 6.17125C7.31583 6.17433 7.32955 6.17433 7.34272 6.17125L10.2044 5.45737V5.78091L7.32283 6.49975L4.44043 5.78032Z" fill="#E29A1B"/>
<path d="M19.199 9.52345H17.7443L16.2895 8.52975V7.6553H17.0844C17.4448 7.6553 17.7178 7.57846 17.9033 7.42476C18.0887 7.26577 18.1815 7.05114 18.1815 6.78085C18.1815 6.60596 18.1338 6.46817 18.0384 6.36747C17.9483 6.26678 17.8264 6.21643 17.6727 6.21643C17.5243 6.21643 17.4051 6.26413 17.315 6.35952C17.2249 6.44962 17.1798 6.56621 17.1798 6.7093C17.1798 6.8471 17.1931 6.96369 17.2196 7.05908H16.21C16.1623 6.90539 16.1384 6.74375 16.1384 6.57416C16.1384 6.20318 16.2736 5.90375 16.5439 5.67586C16.8195 5.44267 17.1825 5.32608 17.633 5.32608C18.1205 5.32608 18.5127 5.46652 18.8095 5.74741C19.1063 6.02829 19.2547 6.37277 19.2547 6.78085C19.2547 7.22603 19.1089 7.58376 18.8175 7.85404C18.5313 8.11903 18.1497 8.28862 17.6727 8.36281L19.199 9.40421V9.52345ZM19.684 5.0081H15.7092V4.11775H18.1656C18.1656 4.09125 18.1656 4.0515 18.1656 3.9985C18.1709 3.9455 18.1735 3.91371 18.1735 3.90311C18.1735 3.73882 18.1444 3.61692 18.0861 3.53743C18.0331 3.45793 17.9245 3.41818 17.7602 3.41818C17.6701 3.41818 17.5058 3.44468 17.2673 3.49768C17.0288 3.54538 16.838 3.56923 16.6949 3.56923C16.4299 3.56923 16.1994 3.51093 16.0033 3.39434V2.54373C16.1676 2.63383 16.3637 2.67887 16.5916 2.67887C16.7294 2.67887 16.9308 2.64708 17.1957 2.58348C17.466 2.51988 17.6966 2.48808 17.8874 2.48808C18.306 2.48808 18.6267 2.59938 18.8493 2.82197C19.0718 3.03925 19.1831 3.34664 19.1831 3.74412C19.1831 3.87131 19.1725 3.99585 19.1513 4.11775H19.684V5.0081ZM22.0924 7.84609H19.9698V6.89214H22.0924V7.84609ZM25.8718 9.52345H24.417L22.9622 8.52975V7.6553H23.7572C24.1176 7.6553 24.3905 7.57846 24.576 7.42476C24.7615 7.26577 24.8542 7.05114 24.8542 6.78085C24.8542 6.60596 24.8065 6.46817 24.7111 6.36747C24.621 6.26678 24.4991 6.21643 24.3454 6.21643C24.1971 6.21643 24.0778 6.26413 23.9877 6.35952C23.8976 6.44962 23.8526 6.56621 23.8526 6.7093C23.8526 6.8471 23.8658 6.96369 23.8923 7.05908H22.8827C22.835 6.90539 22.8112 6.74375 22.8112 6.57416C22.8112 6.20318 22.9463 5.90375 23.2166 5.67586C23.4922 5.44267 23.8552 5.32608 24.3057 5.32608C24.7933 5.32608 25.1854 5.46652 25.4822 5.74741C25.779 6.02829 25.9274 6.37277 25.9274 6.78085C25.9274 7.22603 25.7817 7.58376 25.4902 7.85404C25.204 8.11903 24.8224 8.28862 24.3454 8.36281L25.8718 9.40421V9.52345ZM26.3567 5.0081H22.3819V4.11775H26.3567V5.0081ZM31.1579 7.47246C31.1579 8.05543 30.9724 8.54565 30.6014 8.94313C30.2305 9.33531 29.719 9.5314 29.0672 9.5314C28.3252 9.5314 27.729 9.27701 27.2785 8.76824C26.828 8.25417 26.6028 7.55196 26.6028 6.66161C26.6028 6.51321 26.6055 6.39662 26.6108 6.31183H27.7078C27.7025 6.38602 27.6998 6.48672 27.6998 6.61391C27.6998 7.23928 27.8191 7.7242 28.0576 8.06868C28.3014 8.40786 28.6379 8.57745 29.0672 8.57745C29.3799 8.57745 29.6263 8.49796 29.8065 8.33897C29.992 8.17997 30.098 7.95209 30.1245 7.6553C29.9814 7.6871 29.8356 7.703 29.6872 7.703C29.2474 7.703 28.8923 7.57581 28.622 7.32142C28.3517 7.06173 28.2166 6.71725 28.2166 6.28798C28.2166 5.7792 28.3809 5.35258 28.7094 5.0081H26.1258V4.11775H33.4951V5.0081H30.9592C31.3037 5.47447 31.9794 5.8428 32.9863 6.11309C32.716 6.77555 32.5809 7.49896 32.5809 8.28332C32.5809 8.6702 32.6312 9.05973 32.7319 9.4519H31.6587C31.5633 9.07033 31.5156 8.6861 31.5156 8.29922C31.5156 7.67385 31.6031 7.12798 31.778 6.66161C30.8134 6.31183 30.1881 5.81895 29.9019 5.18299C29.5468 5.48507 29.3693 5.82425 29.3693 6.20053C29.3693 6.59801 29.6024 6.79675 30.0688 6.79675C30.3868 6.79675 30.7021 6.7252 31.0148 6.58211C31.1102 6.8577 31.1579 7.15448 31.1579 7.47246ZM42.0194 9.4519H40.9065C40.9065 8.77884 40.5832 8.44231 39.9367 8.44231H39.6028C39.1841 8.81859 38.6621 9.00673 38.0367 9.00673C37.3159 9.00673 36.7277 8.79474 36.2719 8.37076C35.8214 7.94679 35.5962 7.31082 35.5962 6.46287C35.5962 6.24028 35.6121 6.00709 35.6439 5.76331H36.7171C36.68 6.00709 36.6614 6.24558 36.6614 6.47877C36.6614 7.00344 36.7833 7.39827 37.0271 7.66325C37.2762 7.92294 37.6021 8.05278 38.0049 8.05278C38.3812 8.05278 38.6647 7.94414 38.8555 7.72685C39.0516 7.50426 39.1496 7.22868 39.1496 6.90009C39.1496 6.6987 39.1125 6.53441 39.0384 6.40722C38.9642 6.28003 38.8529 6.21643 38.7045 6.21643C38.5773 6.21643 38.4766 6.26413 38.4024 6.35952C38.3335 6.44962 38.299 6.56886 38.299 6.71725C38.299 6.86035 38.3282 7.01404 38.3865 7.17833H37.4325C37.3477 6.99814 37.3053 6.7941 37.3053 6.56621C37.3053 6.18463 37.4272 5.88255 37.671 5.65996C37.9201 5.43737 38.2487 5.32608 38.6568 5.32608C39.139 5.32608 39.5259 5.47712 39.8174 5.7792C40.1142 6.08129 40.2626 6.46287 40.2626 6.92394C40.2626 7.15183 40.2308 7.36117 40.1672 7.55196C40.5011 7.57316 40.7475 7.70035 40.9065 7.93354V5.0081H35.1431V4.11775H42.6952V5.0081H42.0194V9.4519ZM44.0955 9.4519H42.919C43.2529 8.96963 43.4198 8.5377 43.4198 8.15613C43.4198 7.96004 43.335 7.63145 43.1654 7.17038C42.9958 6.7093 42.911 6.36482 42.911 6.13694C42.911 5.90375 42.9693 5.68911 43.0859 5.49302C43.2025 5.29163 43.3483 5.12999 43.5232 5.0081H44.6917C44.5062 5.09819 44.3473 5.23863 44.2148 5.42942C44.0823 5.62021 44.016 5.8481 44.016 6.11309C44.016 6.33567 44.1008 6.68281 44.2704 7.15448C44.44 7.62085 44.5248 7.95474 44.5248 8.15613C44.5248 8.596 44.3817 9.02793 44.0955 9.4519ZM45.0177 5.0081H42.4659V4.11775H45.0177V5.0081ZM47.2535 5.0081H46.5778V9.4519H45.4648V5.50097C45.4648 5.29428 45.4357 5.16179 45.3774 5.10349C45.3244 5.0399 45.2131 5.0081 45.0435 5.0081H44.7891V4.11775H45.1866C45.3615 4.11775 45.494 4.20784 45.5841 4.38803C45.5311 4.10185 45.5046 3.84746 45.5046 3.62487V3.48178H46.5778V4.11775H47.2535V5.0081ZM47.7108 7.30552L48.3388 6.95574C48.1269 6.61126 47.8592 6.38867 47.5359 6.28798V5.8587C47.5359 5.39233 47.6896 4.97365 47.997 4.60267C48.3097 4.22639 48.7522 4.03825 49.3246 4.03825C49.8917 4.03825 50.2971 4.23964 50.5409 4.64242V3.48178H51.6538V4.11775H52.3295V5.0081H51.6538V9.4519H50.5409V6.81265L47.7108 8.45026V7.30552ZM48.6091 5.86665C48.8529 5.98324 49.0543 6.18463 49.2133 6.47082L50.4852 5.75536C50.358 5.24658 50.0374 4.9922 49.5233 4.9922C49.2583 4.9922 49.0384 5.07699 48.8635 5.24658C48.6939 5.41087 48.6091 5.61756 48.6091 5.86665ZM56.6297 9.4519H55.5167V8.10843C55.5167 7.58906 55.3551 7.32937 55.0318 7.32937C54.9258 7.32937 54.8251 7.37442 54.7297 7.46451C54.6396 7.55461 54.5522 7.6659 54.4674 7.79839C54.3879 7.92559 54.2952 8.05543 54.1892 8.18792C54.0885 8.32042 53.948 8.43171 53.7678 8.52181C53.5877 8.6119 53.3757 8.65695 53.1319 8.65695C52.9146 8.65695 52.7079 8.62515 52.5118 8.56155V7.64735C52.6549 7.68975 52.8086 7.71095 52.9729 7.71095C53.0736 7.71095 53.169 7.68445 53.2591 7.63145C53.3545 7.57316 53.4234 7.51751 53.4658 7.46451C53.5135 7.41152 53.5824 7.31877 53.6724 7.18628C53.7625 7.04849 53.8235 6.95839 53.8553 6.91599C53.7917 6.56091 53.6459 6.29328 53.4181 6.11309C53.1955 5.9329 52.9093 5.8428 52.5595 5.8428V5.0081H52.0984V4.11775H57.3133V5.0081H56.6297V9.4519ZM54.7854 6.39132C55.1246 6.39132 55.3684 6.49467 55.5167 6.70135V5.0081H53.585C54.1998 5.27308 54.5893 5.73416 54.7536 6.39132H54.7854Z" fill="#00684D"/>
<defs>
<linearGradient id="paint0_linear_178_128" x1="1.5143" y1="4.21909" x2="13.5656" y2="2.05823" gradientUnits="userSpaceOnUse">
<stop stop-color="#006DEE"/>
<stop offset="1" stop-color="#0AF0FF"/>
</linearGradient>
</defs>
</svg>
