<svg width="136" height="30" viewBox="0 0 136 30" fill="none" xmlns="http://www.w3.org/2000/svg">
<g clip-path="url(#clip0_68_19679)">
<path d="M43.556 7.66274H41.6079V15.6487L41.4045 15.2854L41.0798 14.5079C40.9039 14.1634 40.6714 13.8494 40.3914 13.5783C40.1358 13.2911 39.845 13.0357 39.5256 12.8177C39.1974 12.605 38.8529 12.4171 38.4953 12.2557C38.1037 12.1161 37.6944 12.0294 37.2788 11.998L36.374 10.798C36.9974 10.3416 37.5746 9.93601 38.1057 9.58107C38.3135 9.43741 38.3957 9.36558 38.3568 9.36558C37.6381 9.36558 37.1619 9.13318 36.9195 8.66839C36.8087 8.46614 36.7451 8.24249 36.7333 8.01345C36.721 7.80797 36.7686 7.60329 36.8705 7.42308C36.9724 7.24287 37.1244 7.0945 37.3091 6.99513C37.5503 6.85729 37.8263 6.78847 38.1057 6.79653C38.6468 6.84724 38.9195 7.05006 38.9325 7.40499C38.9382 7.48214 38.9273 7.5596 38.9005 7.63238C38.8736 7.70516 38.8315 7.77164 38.7767 7.82753C38.7045 7.90397 38.6124 7.95972 38.5101 7.98877C38.4079 8.01781 38.2995 8.01904 38.1966 7.99232C38.0291 7.96535 37.8697 7.90337 37.729 7.81063C37.6598 7.86133 37.6165 8.005 37.6078 8.23317C37.6093 8.34591 37.6398 8.45648 37.6965 8.55469C37.7533 8.6529 37.8344 8.73559 37.9325 8.79515C38.1297 8.94062 38.3694 9.02059 38.6165 9.02332C38.6941 9.02448 38.7714 9.01451 38.8459 8.99374C38.9135 8.95021 38.9862 8.91475 39.0624 8.88811C39.5516 8.61346 40.1274 8.27965 40.7941 7.88246V6.90217H42.7508L43.556 7.66274ZM40.8157 13.4135V9.27684C39.792 9.69523 38.8525 10.2875 38.0407 11.0262C39.1934 11.5273 40.1616 12.3603 40.8157 13.4135Z" fill="#112219"/>
<path d="M51.054 7.66318H48.9976V15.4379L48.6686 15.0872C48.6686 14.9942 48.582 14.7661 48.4652 14.4027C48.3524 13.9534 48.1159 13.5428 47.7812 13.2154C47.4208 12.8764 47.0109 12.5915 46.5647 12.3703C46.5647 12.4294 46.4175 12.5773 46.0971 12.7928C45.8478 12.9758 45.5432 13.0724 45.2313 13.0675C45.0587 13.0827 44.8847 13.0623 44.7206 13.0077C44.5566 12.9531 44.4061 12.8655 44.2789 12.7506C44.1885 12.6557 44.106 12.5539 44.0321 12.4463C44.0272 12.3402 44.0083 12.2351 43.9759 12.1336C43.9469 12.0316 43.9294 11.9267 43.9239 11.821C43.9151 11.6286 43.9543 11.437 44.0379 11.2626C44.1216 11.0882 44.2474 10.9361 44.4044 10.8196C44.7253 10.5918 45.1165 10.4784 45.5127 10.4984C45.846 10.4984 46.0365 10.5449 46.0885 10.6336C46.0942 10.3242 46.0217 10.0182 45.8775 9.74255C45.7333 9.46694 45.5218 9.23023 45.2616 9.05333C44.9401 8.893 44.6 8.77099 44.2486 8.68995C43.967 8.63656 43.6983 8.53192 43.4564 8.3815C43.2905 8.26337 43.1445 8.12083 43.0234 7.95896L42.8503 7.62092L42.071 6.86035H50.2531L51.054 7.66318ZM48.2487 12.9576V7.66318H44.6339C45.3496 8.24065 45.8172 8.63784 46.0365 8.85474C46.3551 9.16142 46.5851 9.54476 46.7032 9.96602C46.8505 10.4414 46.9249 10.9355 46.924 11.4322C47.2357 11.7449 47.6773 12.2562 48.2487 12.9576Z" fill="#112219"/>
<path d="M51.526 3.09949L48.2056 6.24742H46.3311L50.8203 3.02344L51.526 3.09949Z" fill="#112219"/>
<path d="M62.9764 6.05764L61.6517 5.0858C60.8686 4.50345 59.9088 4.19269 58.9244 4.20269C58.393 4.19397 57.8712 4.34117 57.4265 4.62523L57.0542 4.8703C56.9241 5.00252 56.804 5.14373 56.6949 5.29284C56.3009 5.79144 56.1234 6.10835 56.1624 6.25201L56.4611 6.90272H57.9113L58.6906 7.6802H56.7208V15.3535L55.9286 14.6098V7.66329H54.7814L54.0151 6.90272H56.0238L55.3398 6.18863C55.2606 6.08878 55.2221 5.96386 55.2316 5.83792C55.2275 5.6158 55.2811 5.39629 55.3875 5.19989C55.5495 4.9038 55.7424 4.62485 55.9632 4.36748C56.3206 4.03027 56.737 3.75835 57.1927 3.56466C57.5103 3.42343 57.8569 3.35547 58.2057 3.36606C59.3545 3.41137 60.4674 3.77 61.4179 4.40129C61.9222 4.74076 62.3868 5.13326 62.8033 5.57172L62.9764 6.05764Z" fill="#112219"/>
<path d="M65.6563 7.66292H63.7385V15.5137L63.3316 14.9348C62.9544 13.9224 62.2353 13.0655 61.2925 12.5052C60.6912 12.1549 60.0162 11.9425 59.3185 11.8841L58.3228 10.5024C58.9333 10.0653 59.5741 9.66998 60.2406 9.31927C61.1179 8.87035 62.0298 8.4889 62.9679 8.17841V7.66292H57.9331L57.1755 6.90234H64.89L65.6563 7.66292ZM62.9766 13.3841V9.38265C61.912 9.76401 60.9011 10.2751 59.9678 10.9038C61.2163 11.3959 62.2706 12.2651 62.9766 13.3841Z" fill="#112219"/>
<path d="M72.6998 7.66322H70.8902V15.3534L70.5785 15.0154C70.227 14.2544 69.6994 13.5833 69.0374 13.0548C68.3859 12.5059 67.56 12.1938 66.6996 12.1717L65.6563 10.8492C65.8944 10.6379 66.2927 10.2872 66.8555 9.80127L68.007 8.90126C67.8193 8.80569 67.622 8.72923 67.4183 8.67309C67.1613 8.62725 66.8989 8.61729 66.639 8.64351C66.3626 8.67873 66.0819 8.66151 65.8122 8.5928C65.6746 8.53231 65.552 8.44364 65.4527 8.33283C65.3533 8.22201 65.2796 8.09163 65.2364 7.95054C65.2364 7.89139 65.1758 7.7942 65.0502 7.66322C64.9655 7.59413 64.8872 7.51776 64.8165 7.43504L64.271 6.88574H71.9249L72.6998 7.66322ZM70.1413 10.0675V7.66322H67.1109L68.059 8.33083C68.371 8.56432 68.6543 8.8323 68.9032 9.12943C69.3327 9.42037 69.746 9.7335 70.1413 10.0675ZM70.1413 13.3971V10.8618C69.7547 10.4764 69.3347 10.1244 68.8858 9.80972C68.3209 10.2047 67.8063 10.6643 67.3533 11.1787C67.7986 11.373 68.2186 11.6184 68.6044 11.9097C69.1987 12.3177 69.7183 12.8205 70.1413 13.3971Z" fill="#112219"/>
<path d="M80.0072 7.66292H77.9812V15.4968L77.6565 15.1461L77.3145 14.4489C77.0768 13.9963 76.7604 13.5874 76.3794 13.2404C76.0251 12.8812 75.6013 12.594 75.1327 12.3954C74.6926 12.2596 74.2347 12.187 73.7733 12.1799L72.7387 10.9165C73.2812 10.3925 73.7647 9.96153 74.1889 9.6235C74.2712 9.56435 74.5569 9.34885 75.0547 8.97279C74.9605 8.86018 74.8496 8.76191 74.7257 8.68124C74.3633 8.49637 73.965 8.38837 73.5569 8.36433C73.2942 8.35696 73.0365 8.29289 72.8022 8.17673C72.5679 8.06057 72.3629 7.89519 72.2018 7.69249L71.3577 6.90234H79.1977L80.0072 7.66292ZM74.9032 14.9644C74.7044 14.964 74.5118 14.8969 74.3578 14.7743C74.1991 14.6618 74.0881 14.4964 74.0461 14.3095C74.0186 14.1958 74.0176 14.0777 74.043 13.9636C74.0685 13.8495 74.1198 13.7425 74.1932 13.6503C74.2624 13.5547 74.3548 13.4773 74.462 13.425C74.5693 13.3726 74.6881 13.347 74.808 13.3503C75.0062 13.3495 75.1988 13.4151 75.3534 13.5362C75.5116 13.6455 75.6226 13.8081 75.6651 13.9926C75.6911 14.1068 75.6906 14.2253 75.6636 14.3393C75.6366 14.4534 75.5839 14.5601 75.5093 14.6517C75.4427 14.7487 75.3524 14.8281 75.2466 14.8826C75.1409 14.9372 75.0229 14.9653 74.9032 14.9644ZM77.1933 13.5024V7.66292H74.3707C74.6482 7.84426 74.9142 8.04181 75.1673 8.25447C75.2495 8.3263 75.6002 8.71927 76.2409 9.43758C75.9877 9.70221 75.7173 9.95062 75.4314 10.1813C75.0589 10.5228 74.7103 10.8884 74.3881 11.2756C74.6602 11.3571 74.924 11.4632 75.176 11.5925C76.0138 12.0368 76.7103 12.6975 77.189 13.5024H77.1933Z" fill="#112219"/>
<path d="M88.9252 7.66292H84.7476V8.22489C84.7962 8.20243 84.8498 8.19226 84.9035 8.19532C85.2308 8.20471 85.5528 8.2784 85.8504 8.41198C86.1479 8.54556 86.4148 8.73629 86.6351 8.97279C87.1207 9.40584 87.4591 9.97347 87.6048 10.5996C87.6554 10.8088 87.683 11.0227 87.6871 11.2376C87.693 11.5989 87.5775 11.9522 87.3581 12.2432C87.2539 12.3906 87.114 12.5105 86.9509 12.5924C86.7877 12.6742 86.6064 12.7154 86.423 12.7123C86.1631 12.7118 85.9134 12.6134 85.726 12.4376C85.6282 12.3582 85.5496 12.2587 85.4958 12.1462C85.4419 12.0337 85.4141 11.9111 85.4143 11.7869C85.4206 11.6336 85.4629 11.4838 85.538 11.349C85.613 11.2142 85.7188 11.098 85.8472 11.0094C85.9869 10.9637 86.1328 10.938 86.2801 10.9334C86.5854 10.9695 86.8677 11.1103 87.0767 11.3306C87.0838 11.2843 87.0838 11.2373 87.0767 11.1911C87.0709 10.9467 87.0142 10.706 86.91 10.4838C86.8058 10.2615 86.6563 10.0622 86.4706 9.89815C86.2511 9.66973 85.9809 9.49344 85.6807 9.38284C85.3805 9.27224 85.0583 9.23025 84.7389 9.26012V15.3278L84.4576 15.0574L84.2238 14.3898C84.0675 14.0053 83.8433 13.6507 83.5614 13.3419C83.287 13.0171 82.9663 12.7325 82.609 12.4968C82.0329 12.1448 81.3837 11.9225 80.7085 11.8461L79.6306 10.5531C80.0835 10.1918 80.5656 9.86682 81.0722 9.58125C81.9887 9.02706 82.9697 8.58165 83.9943 8.25447V7.66292H79.2323L78.4487 6.90234H88.1589L88.9252 7.66292ZM83.9943 13.2616V9.27702C83.3688 9.49785 82.7682 9.78104 82.2021 10.1221L81.2064 10.8066C82.4033 11.2784 83.3908 12.1479 83.9943 13.2616Z" fill="#112219"/>
<path d="M100.878 7.66318H98.8217V15.4379L98.4927 15.0872C98.4927 14.9942 98.4061 14.7661 98.2935 14.4027C98.1775 13.9538 97.9397 13.5436 97.6052 13.2154C97.2457 12.8754 96.8356 12.5905 96.3887 12.3703C96.3887 12.4294 96.2415 12.5773 95.9212 12.7928C95.6719 12.9758 95.3672 13.0724 95.0553 13.0675C94.8834 13.0828 94.71 13.0626 94.5466 13.008C94.3832 12.9533 94.2335 12.8656 94.1073 12.7506C94.0145 12.6567 93.9304 12.5548 93.8562 12.4463C93.851 12.3405 93.8336 12.2356 93.8042 12.1336C93.7721 12.0321 93.7532 11.9271 93.748 11.821C93.7392 11.6286 93.7783 11.437 93.862 11.2626C93.9457 11.0882 94.0714 10.9361 94.2285 10.8196C94.5493 10.5918 94.9405 10.4784 95.3367 10.4984C95.6701 10.4984 95.8606 10.5449 95.9125 10.6336C95.9182 10.3242 95.8458 10.0182 95.7016 9.74255C95.5574 9.46694 95.3458 9.23023 95.0856 9.05333C94.7654 8.8935 94.4268 8.77151 94.077 8.68995C93.7942 8.63601 93.5241 8.53143 93.2804 8.3815C93.1146 8.26337 92.9685 8.12083 92.8475 7.95896L92.6787 7.62092L91.8994 6.86035H100.077L100.878 7.66318ZM98.0727 12.9576V7.66318H94.4579C95.1766 8.24065 95.6441 8.63784 95.8606 8.85474C96.1802 9.16129 96.4117 9.54455 96.5316 9.96602C96.6781 10.4415 96.7511 10.9357 96.748 11.4322C97.0424 11.7449 97.484 12.2562 98.0554 12.9576H98.0727Z" fill="#112219"/>
<path d="M106.454 10.477C105.698 10.3446 105.334 10.2179 105.363 10.0967C105.126 9.94969 104.906 9.77674 104.709 9.58125C104.405 9.3255 104.041 9.14699 103.649 9.06152L103.618 9.1249C103.701 9.19169 103.769 9.27466 103.818 9.36851C103.866 9.46236 103.894 9.56503 103.9 9.66998C103.884 9.92185 103.786 10.162 103.618 10.3545C103.55 10.4549 103.457 10.5377 103.348 10.5958C103.24 10.6539 103.119 10.6856 102.995 10.6883C102.814 10.6901 102.636 10.6463 102.477 10.5612C102.319 10.476 102.185 10.3525 102.09 10.2024C102.011 10.0821 101.96 9.9462 101.941 9.80442C101.923 9.66264 101.937 9.51857 101.982 9.38265C102.028 9.07322 102.195 8.79306 102.447 8.60031C102.699 8.40755 103.018 8.317 103.337 8.34743C103.787 8.35155 104.227 8.48371 104.601 8.72772C105.328 9.18406 105.709 9.48406 105.74 9.6235C105.985 9.54851 106.199 9.4008 106.354 9.20096C106.47 8.98817 106.522 8.74823 106.506 8.508C106.489 8.27594 106.408 8.05264 106.272 7.86151C106.221 7.79171 106.153 7.73646 106.073 7.70153C105.993 7.66659 105.905 7.65326 105.818 7.66292H100.142L99.3325 6.90234H108.701L109.493 7.67982H106.895C106.947 7.67982 107.03 7.83616 107.147 8.14884C107.273 8.45004 107.362 8.76499 107.411 9.08687C107.381 9.43703 107.211 9.76177 106.939 9.99111L106.454 10.477Z" fill="#112219"/>
<path d="M107.298 10.5072C107.347 10.9873 107.363 11.4701 107.346 11.9523V16.0129L107.047 15.7551C106.938 15.54 106.813 15.3325 106.675 15.134C106.536 14.9736 106.361 14.8472 106.163 14.765C105.965 14.6828 105.751 14.6471 105.536 14.6607C105.245 14.6723 104.955 14.7077 104.67 14.7664C104.403 14.8234 104.133 14.8643 103.861 14.8889C103.492 14.9037 103.125 14.8418 102.783 14.7072C102.434 14.6014 102.13 14.3878 101.917 14.0988C101.629 13.6786 101.467 13.1884 101.449 12.6833C101.459 12.3037 101.532 11.9283 101.666 11.572C101.761 11.3185 101.817 11.2001 101.839 11.2086L102.198 11.479C102.1 11.7653 102.048 12.0645 102.043 12.3663C102.021 12.59 102.056 12.8154 102.145 13.0225C102.235 13.2296 102.375 13.4121 102.553 13.5537C102.848 13.7523 103.523 13.803 104.579 13.7016H105.034C105.457 13.6679 105.877 13.7867 106.216 14.0354C106.343 14.1506 106.463 14.2734 106.575 14.403V11.2086C106.563 11.0438 106.526 10.8816 106.467 10.7269C106.393 10.5114 106.32 10.41 106.25 10.4311C106.237 10.4154 106.219 10.4033 106.2 10.3959C106.18 10.3886 106.159 10.3861 106.138 10.3889C105.999 10.4021 105.863 10.4378 105.735 10.4945C105.522 10.6256 105.323 10.7786 105.142 10.9508C104.965 11.1534 104.851 11.4012 104.813 11.6649C104.929 11.628 105.05 11.6067 105.173 11.6016C105.256 11.6032 105.338 11.6226 105.412 11.6583C105.487 11.6941 105.553 11.7454 105.605 11.8086C105.72 11.9375 105.783 12.1026 105.783 12.2734C105.782 12.3926 105.752 12.5099 105.695 12.6156C105.639 12.7214 105.558 12.8126 105.458 12.8818C105.257 13.0319 105.01 13.1122 104.757 13.11C104.532 13.1013 104.314 13.0261 104.134 12.8945C103.941 12.7873 103.796 12.6141 103.727 12.4086C103.675 12.2312 103.649 12.0478 103.649 11.8635C103.638 11.5067 103.754 11.1573 103.978 10.8748C104.082 10.7522 104.268 10.5368 104.536 10.2325L105.255 9.80998C105.367 9.679 105.64 9.61139 106.064 9.61139C106.344 9.59999 106.619 9.68277 106.844 9.84585C107.068 10.0089 107.229 10.2424 107.298 10.5072Z" fill="#112219"/>
<path d="M116.757 7.63305H114.731V15.3529L113.865 14.5078V10.2824C113.86 9.64929 113.602 9.04316 113.147 8.59222C112.849 8.25925 112.442 8.03808 111.995 7.96686C111.757 7.93137 111.514 7.96117 111.292 8.05295C111.07 8.14473 110.879 8.29487 110.74 8.48658C110.539 8.70211 110.409 8.9715 110.367 9.25983C110.34 9.5608 110.387 9.86375 110.506 10.1429C110.644 10.519 110.839 10.7049 111.099 10.7049C111.164 10.7049 111.181 10.6838 111.164 10.6331C111.123 10.4957 111.101 10.3536 111.099 10.2105C111.099 9.81758 111.346 9.61899 111.831 9.61899C112.022 9.61046 112.21 9.66386 112.367 9.77087C112.523 9.87788 112.639 10.0325 112.696 10.2105C112.746 10.3213 112.772 10.4405 112.774 10.5613C112.776 10.7243 112.731 10.8845 112.645 11.0241C112.558 11.1636 112.434 11.2769 112.285 11.3514C111.981 11.5395 111.622 11.6255 111.263 11.5965C110.973 11.5772 110.69 11.4979 110.433 11.3639C110.177 11.2298 109.952 11.0441 109.774 10.819C109.415 10.3535 109.251 9.77173 109.315 9.19223C109.34 8.6641 109.526 8.15515 109.848 7.73024C110.164 7.30326 110.64 7.0149 111.173 6.92741C111.362 6.88799 111.555 6.86676 111.748 6.86403C111.929 6.85879 112.109 6.89045 112.276 6.95699C112.536 7.10065 112.709 7.19361 112.774 7.24432C113.181 7.55225 113.503 7.9546 113.709 8.41475L114.225 9.44998C114.144 8.98518 114.062 8.32179 113.978 7.45981C113.938 6.78009 113.938 6.09867 113.978 5.41895L114.259 5.71895C114.34 5.797 114.399 5.89472 114.428 6.00205C114.461 6.25624 114.589 6.48959 114.787 6.65699L115.099 6.86403H116.004L116.757 7.63305Z" fill="#112219"/>
<path d="M120.013 7.66286H118.065V15.6362L117.329 14.846V9.16288C117.343 8.87931 117.266 8.59851 117.108 8.36005C116.978 8.15008 116.795 7.97591 116.577 7.85393C116.359 7.73195 116.112 7.6662 115.861 7.66286H115.658L114.857 6.90229C115.265 6.85132 115.678 6.85132 116.086 6.90229C116.364 6.94866 116.622 7.07036 116.832 7.25345C117.042 7.43654 117.194 7.67362 117.272 7.93751C117.41 8.24048 117.53 8.55085 117.632 8.8671C117.498 8.16869 117.407 7.46324 117.359 6.7544C117.329 6.39524 117.329 5.98538 117.329 5.51636L117.627 5.76143C117.659 6.05068 117.729 6.33472 117.835 6.60651C117.906 6.71261 117.986 6.81294 118.073 6.90651H119.242L120.013 7.66286Z" fill="#112219"/>
<path d="M128.152 7.64552H126.216V15.4498L125.424 14.7062V10.4808C125.419 10.3447 125.385 10.2112 125.324 10.0889C125.263 9.96655 125.176 9.8582 125.069 9.7709C124.975 9.67086 124.858 9.59358 124.728 9.54517C124.598 9.49677 124.459 9.47857 124.32 9.49202C124.227 9.49985 124.138 9.53178 124.062 9.58453C123.986 9.63727 123.926 9.70891 123.887 9.79203C123.801 9.96529 123.778 10.1621 123.822 10.3498L123.887 10.7343L123.558 10.8568C123.558 10.8061 123.528 10.6836 123.402 10.4934C123.286 10.2823 123.14 10.0876 122.97 9.91456C122.825 9.7743 122.652 9.66445 122.462 9.59178C122.273 9.51911 122.069 9.48516 121.866 9.49202C121.495 9.48842 121.139 9.62821 120.874 9.88076C120.737 9.99649 120.627 10.1399 120.553 10.3012C120.478 10.4624 120.44 10.6376 120.441 10.8146C120.434 10.9519 120.456 11.0891 120.504 11.2182C120.552 11.3473 120.627 11.4656 120.723 11.5661C120.819 11.6665 120.935 11.7472 121.063 11.8032C121.192 11.8592 121.331 11.8894 121.472 11.8921C121.326 11.7273 121.243 11.5182 121.238 11.3005C121.233 11.1896 121.254 11.0791 121.298 10.9768C121.342 10.8745 121.409 10.783 121.493 10.7089C121.659 10.5688 121.871 10.4922 122.091 10.4934C122.463 10.4934 122.74 10.7005 122.918 11.1442C123.046 11.3767 123.089 11.6451 123.039 11.9047C122.952 12.1341 122.791 12.3295 122.58 12.4615C122.369 12.5934 122.12 12.6546 121.87 12.6357C121.374 12.6428 120.888 12.4947 120.485 12.2132C120.089 11.938 119.82 11.5222 119.736 11.0554C119.696 10.8607 119.675 10.6625 119.675 10.4639C119.664 9.96464 119.815 9.47483 120.108 9.06526C120.239 8.85585 120.422 8.6819 120.64 8.55935C120.858 8.4368 121.103 8.36958 121.355 8.36384C121.625 8.35907 121.893 8.40962 122.142 8.51223C122.391 8.61485 122.616 8.76725 122.801 8.95962L123.082 9.30611C123.114 9.07579 123.237 8.8667 123.424 8.723C123.498 8.63385 123.589 8.56017 123.692 8.50642C123.796 8.45268 123.909 8.41998 124.026 8.41032C124.293 8.41825 124.55 8.51516 124.753 8.68497C124.835 8.79483 124.926 8.90892 125.017 9.01878C125.199 9.22624 125.332 9.46997 125.407 9.73287V7.62017H119.372L118.562 6.84692H127.32L128.152 7.64552Z" fill="#112219"/>
<path d="M135.411 7.66292H133.385V15.4968L133.061 15.1461L132.714 14.4489C132.48 13.9944 132.163 13.585 131.779 13.2404C131.426 12.8793 131.002 12.5919 130.532 12.3954C130.094 12.26 129.637 12.1874 129.177 12.1799L128.151 10.9165C128.693 10.3925 129.173 9.96153 129.602 9.6235C129.684 9.56435 129.97 9.34885 130.467 8.97279C130.372 8.86123 130.261 8.76311 130.138 8.68124C129.776 8.49754 129.378 8.38961 128.97 8.36433C128.707 8.35696 128.449 8.29289 128.215 8.17673C127.981 8.06057 127.776 7.89519 127.615 7.69249L126.762 6.90234H134.602L135.411 7.66292ZM130.316 14.9644C130.117 14.964 129.925 14.8969 129.77 14.7743C129.614 14.6595 129.504 14.4951 129.459 14.3095C129.432 14.1987 129.43 14.0834 129.453 13.9718C129.476 13.8602 129.524 13.7548 129.593 13.663C129.662 13.5671 129.754 13.4895 129.861 13.4371C129.969 13.3847 130.088 13.3593 130.208 13.363C130.403 13.3621 130.592 13.4229 130.749 13.5362C130.907 13.6455 131.018 13.8081 131.061 13.9926C131.086 14.1068 131.086 14.2253 131.059 14.3393C131.032 14.4534 130.979 14.5601 130.905 14.6517C130.839 14.7461 130.752 14.8238 130.649 14.8782C130.547 14.9326 130.433 14.9622 130.316 14.9644ZM132.61 13.5024V7.66292H129.788C130.065 7.84426 130.331 8.04181 130.584 8.25447C130.667 8.3263 131.017 8.71927 131.658 9.43758C131.404 9.70117 131.133 9.94951 130.848 10.1813C130.476 10.5228 130.127 10.8884 129.805 11.2756C130.077 11.3579 130.341 11.464 130.593 11.5925C131.425 12.0404 132.116 12.7006 132.593 13.5024H132.61Z" fill="#112219"/>
<path d="M42.383 21.1335H41.0323V26.4153L40.4392 25.8068L40.4825 23.0687C40.4726 22.7704 40.3847 22.4795 40.2271 22.2237C40.0905 21.9501 39.8939 21.7092 39.6513 21.518C39.4581 21.3658 39.2197 21.2784 38.9716 21.2687C38.717 21.2547 38.4646 21.3211 38.2517 21.4581C38.0388 21.5951 37.8768 21.7954 37.7898 22.0293C37.9679 21.9633 38.1579 21.9332 38.3482 21.9406C38.4736 21.9182 38.6025 21.9221 38.7262 21.9522C38.8499 21.9823 38.9655 22.0377 39.0655 22.1149C39.1655 22.1921 39.2475 22.2892 39.3059 22.3998C39.3644 22.5103 39.398 22.6318 39.4045 22.7561C39.4608 23.149 39.1405 23.7025 38.4478 24.4462L37.8461 23.7871C38.0221 23.6293 38.2299 23.4265 38.4695 23.1786C38.7725 22.8532 38.924 22.642 38.924 22.549C38.924 22.4561 38.8244 22.3251 38.6469 22.3251C38.4715 22.3679 38.3046 22.4394 38.1534 22.5363C37.9939 22.6419 37.8143 22.7152 37.6253 22.7518C37.5637 22.752 37.5034 22.7344 37.4521 22.7011C37.3287 22.6351 37.2258 22.5379 37.1542 22.4197C37.0826 22.3015 37.0449 22.1666 37.0452 22.0293C37.0538 21.8008 37.1256 21.5789 37.253 21.387C37.3718 21.1832 37.5397 21.0106 37.7422 20.8842C37.984 20.747 38.259 20.6756 38.5387 20.6772C39.5777 20.6772 40.2213 21.0715 40.4695 21.8603L40.6989 22.5913C40.6989 22.287 40.6513 21.78 40.5951 21.0617C40.5691 20.6941 40.5561 20.2166 40.5561 19.6504L40.8678 19.9462C40.8387 20.0352 40.8298 20.1293 40.8417 20.2219C40.8537 20.3146 40.8862 20.4036 40.9371 20.4828C40.9674 20.5462 41.0453 20.5884 41.1795 20.6138C41.4046 20.6138 41.6124 20.6138 41.8635 20.6138L42.383 21.1335Z" fill="#112219"/>
<path d="M47.1712 21.1116H45.8118V26.2624L45.2404 25.6962V22.8863C45.2422 22.4583 45.0711 22.0469 44.7642 21.7412C44.5691 21.515 44.2971 21.365 43.9979 21.3187C43.8394 21.2953 43.6774 21.3153 43.5299 21.3764C43.3824 21.4376 43.2552 21.5376 43.1624 21.6651C43.0295 21.8097 42.9422 21.9887 42.9113 22.1806C42.8949 22.381 42.9276 22.5823 43.0066 22.768C43.0975 23.0215 43.2273 23.144 43.4005 23.144C43.4438 23.144 43.4568 23.144 43.4438 23.0933C43.4159 23.0043 43.4013 22.9118 43.4005 22.8187C43.4005 22.5567 43.565 22.4257 43.8897 22.4257C44.0153 22.4237 44.1383 22.4607 44.241 22.5313C44.3437 22.6019 44.4208 22.7025 44.4611 22.8187C44.494 22.8935 44.5116 22.9739 44.5131 23.0553C44.5137 23.1639 44.4832 23.2704 44.425 23.363C44.3669 23.4556 44.2835 23.5305 44.1841 23.5792C43.9828 23.7068 43.7435 23.7648 43.5044 23.744C43.3109 23.731 43.1224 23.6779 42.9514 23.5883C42.7805 23.4987 42.6311 23.3746 42.513 23.2243C42.2726 22.9154 42.1626 22.5283 42.2057 22.1426C42.2235 21.7903 42.3469 21.4509 42.5607 21.1665C42.7677 20.8855 43.0778 20.6933 43.4265 20.6299C43.5534 20.6049 43.6823 20.5908 43.8118 20.5877C43.9319 20.5848 44.0513 20.6064 44.1624 20.651C44.3356 20.744 44.4482 20.8074 44.4958 20.8412C44.7665 21.0476 44.9806 21.3161 45.1192 21.6229L45.4612 22.3116C45.4049 22.0032 45.3529 21.5595 45.2967 20.9848C45.2705 20.5317 45.2705 20.0774 45.2967 19.6243L45.4871 19.8229C45.5402 19.8761 45.5789 19.9415 45.5997 20.013C45.625 20.177 45.7095 20.3268 45.8378 20.4355L46.0456 20.5708H46.6474L47.1712 21.1116Z" fill="#112219"/>
<path d="M52.8552 21.1328H51.5262V26.2625C51.3268 26.1003 51.1401 25.9237 50.9677 25.7343L51.0413 23.123C50.9852 22.9423 50.9157 22.7657 50.8335 22.5948C50.7459 22.4243 50.6147 22.2787 50.4525 22.1723L48.6949 23.9005L47.933 23.63L48.3659 23.1652C48.4111 23.1053 48.4412 23.0358 48.454 22.9625C48.4668 22.8891 48.4618 22.8139 48.4395 22.7427C48.3919 22.5061 48.2837 22.3962 48.1191 22.4004C47.8996 22.4446 47.684 22.5054 47.4741 22.5821C47.4197 22.5906 47.3639 22.5845 47.3128 22.5644C47.2617 22.5443 47.2172 22.511 47.1841 22.468C47.0981 22.3949 47.0453 22.2917 47.0369 22.1807C47.042 22.0823 47.0749 21.9873 47.1321 21.9061C47.3128 21.564 47.5847 21.2759 47.9192 21.0721C48.2537 20.8683 48.6384 20.7565 49.0326 20.7483C49.4476 20.7438 49.8515 20.8796 50.1755 21.1328C50.5027 21.3783 50.7605 21.7011 50.9244 22.0709C51.0539 22.3254 51.1583 22.5914 51.2361 22.8652L51.0586 21.4962L50.9937 19.8948L51.2751 20.0976C51.2836 20.1154 51.2937 20.1323 51.3054 20.1483C51.3068 20.2932 51.3587 20.4332 51.4526 20.5455L51.6387 20.6553H51.9634C52.0845 20.6471 52.206 20.6471 52.3271 20.6553L52.8552 21.1328ZM50.0196 21.6061C49.9243 21.5217 49.8231 21.4441 49.7166 21.3737C49.5756 21.2836 49.4085 21.2407 49.2404 21.2511C49.0002 21.2303 48.7592 21.281 48.549 21.3963C48.3389 21.5117 48.1694 21.6865 48.0629 21.8976C48.1601 21.8843 48.2591 21.896 48.3503 21.9315C48.4414 21.9671 48.5214 22.0253 48.5824 22.1004C48.715 22.2658 48.7948 22.4657 48.8118 22.6751C48.8134 22.7156 48.806 22.7559 48.7902 22.7934L50.0196 21.6061Z" fill="#112219"/>
<path d="M51.6603 26.6682C51.5282 26.5133 51.4162 26.3429 51.3269 26.1612C51.1278 25.8119 51.0109 25.6133 50.9763 25.5654C50.8154 25.4287 50.6276 25.3255 50.4243 25.2623C50.221 25.199 50.0067 25.1771 49.7944 25.1978C49.552 25.1978 49.145 25.1978 48.5693 25.2401C48.2725 25.2554 47.9761 25.2033 47.7034 25.0879C47.4296 24.9825 47.1985 24.7926 47.0454 24.5471C46.8775 24.2956 46.7873 24.0022 46.7857 23.702C46.7627 23.4187 46.7846 23.1337 46.8506 22.8569L47.1407 23.14C47.1057 23.2097 47.0879 23.2864 47.0887 23.364C47.0934 23.566 47.1604 23.7619 47.2809 23.9262C47.4013 24.0905 47.5697 24.2156 47.764 24.2851C47.9823 24.3532 48.2102 24.3874 48.4394 24.3865L49.2403 24.4288C49.6567 24.4517 50.067 24.5373 50.4568 24.6823C50.7063 24.8102 50.9237 24.9906 51.0931 25.2105C51.3075 25.4417 51.4762 25.7096 51.591 26.0006C51.6497 26.2183 51.673 26.4435 51.6603 26.6682Z" fill="#112219"/>
<path d="M59.193 21.1332H55.9635C55.8487 21.1765 55.7397 21.2333 55.6388 21.3022C55.615 21.3205 55.5953 21.3435 55.5811 21.3697C55.567 21.3959 55.5586 21.4247 55.5566 21.4543C55.5566 21.6064 55.7297 21.7374 56.0761 21.843C56.3026 21.921 56.5416 21.9582 56.7817 21.9529C57.102 21.8979 57.4154 21.8101 57.7168 21.6909C57.9376 21.9106 58.2017 22.1684 58.4961 22.4726C58.3078 22.669 58.1476 22.8893 58.0199 23.1276C57.8233 23.4412 57.706 23.7961 57.6779 24.1628C57.6451 24.3641 57.6277 24.5674 57.6259 24.7712C57.6574 25.2751 57.7913 25.7678 58.0199 26.2206C58.0151 26.2228 58.01 26.224 58.0047 26.224C57.9995 26.224 57.9943 26.2228 57.9895 26.2206C57.8983 26.2119 57.8083 26.1935 57.7211 26.1656C57.5826 26.129 57.509 26.0994 57.5004 26.0769C57.5004 26.0051 57.4138 25.6882 57.2752 25.1346C57.1724 24.7736 57.1128 24.4021 57.0978 24.0276C57.1121 23.517 57.2206 23.0132 57.4181 22.5402C57.0599 22.5345 56.7037 22.4862 56.3575 22.3966C56.0087 22.3426 55.6861 22.1829 55.4354 21.9402C55.4137 21.9064 55.3142 21.7797 55.1323 21.5557C55.1196 21.5521 55.1061 21.5521 55.0934 21.5557C54.9462 21.5557 54.773 21.7121 54.5739 22.0247C54.4114 22.2316 54.3069 22.4763 54.2708 22.7346C54.2708 22.9628 54.4007 23.0811 54.6561 23.0811C54.962 23.0161 55.2546 22.9019 55.522 22.7431C55.603 22.7009 55.6869 22.6642 55.773 22.6332C55.7867 22.6329 55.8003 22.6354 55.813 22.6405C55.8257 22.6456 55.8371 22.6532 55.8466 22.6628C55.8856 22.6628 55.9895 22.7431 56.1583 22.9459C56.3654 23.1765 56.5137 23.4516 56.5912 23.7487C56.6399 23.9597 56.6325 24.1793 56.5696 24.3867C56.5181 24.5821 56.4236 24.7641 56.2928 24.9203C56.162 25.0764 55.9979 25.2029 55.812 25.291C55.6238 25.3775 55.4183 25.4223 55.2103 25.422C54.8989 25.4133 54.5942 25.3321 54.3216 25.1851C54.049 25.0381 53.8163 24.8295 53.6431 24.5769C53.4036 24.2521 53.2207 23.8909 53.102 23.5078C52.9368 22.8718 52.8696 22.2153 52.9028 21.5599C53.0058 21.6036 53.1031 21.6589 53.1929 21.7247C53.1591 22.3055 53.2706 22.8855 53.5176 23.4149C53.718 23.8495 54.0565 24.2095 54.483 24.4417C54.6633 24.5497 54.8737 24.5999 55.0847 24.5853C55.3397 24.5687 55.59 24.5101 55.825 24.4121C56.115 24.2811 56.2579 24.1079 56.2579 23.8839C56.2591 23.7975 56.235 23.7125 56.1886 23.6388C56.1497 23.5248 56.0847 23.4698 55.9808 23.4698C55.9373 23.4705 55.8944 23.4806 55.8553 23.4994C55.5977 23.6212 55.3184 23.6929 55.0328 23.7107C54.8525 23.7113 54.6746 23.6708 54.5133 23.5924C54.3517 23.4946 54.2115 23.3666 54.1008 23.2158C53.9901 23.065 53.9111 22.8942 53.8682 22.7135C53.813 22.4777 53.828 22.2314 53.9115 22.0036C54.0106 21.7948 54.1404 21.6012 54.2968 21.429C54.3574 21.3698 54.4527 21.2726 54.5782 21.1374H52.5175L51.998 20.6177H58.6822L59.193 21.1332Z" fill="#112219"/>
<path d="M61.3836 21.133H60.0849V26.4444L59.587 25.9162V22.1133C59.5961 21.9258 59.5463 21.74 59.4442 21.5809C59.3574 21.441 59.2356 21.3248 59.0902 21.2435C58.9448 21.1622 58.7806 21.1184 58.613 21.1161H58.4788L57.9463 20.5964C58.2194 20.5625 58.4957 20.5625 58.7688 20.5964C58.9532 20.6274 59.1249 20.7084 59.2642 20.8302C59.4036 20.952 59.5049 21.1097 59.5567 21.2852C59.6484 21.4875 59.7279 21.6949 59.7948 21.9063C59.7086 21.4437 59.6494 20.9768 59.6173 20.5077C59.5957 20.2711 59.587 19.9964 59.587 19.6626L59.7862 19.8274C59.8101 20.0142 59.8581 20.1974 59.929 20.3725C59.9745 20.4446 60.0267 20.5125 60.0849 20.5753H60.8684L61.3836 21.133Z" fill="#112219"/>
<path d="M67.4529 21.1332H60.9592L60.4397 20.6135H66.9334L67.4529 21.1332ZM66.245 23.06C66.3139 23.266 66.349 23.4814 66.3489 23.6981C66.3607 23.987 66.289 24.2733 66.142 24.5243C65.995 24.7753 65.7787 24.981 65.5178 25.1178C65.1652 25.3313 64.7595 25.4467 64.3446 25.4516C64.1276 25.4404 63.9133 25.3991 63.7082 25.3291C63.5001 25.269 63.306 25.17 63.1367 25.0375C62.9382 24.8508 62.7571 24.6472 62.5956 24.4291C62.3548 24.129 62.1527 23.8012 61.9938 23.453C61.6562 22.6079 61.4051 21.9488 61.2492 21.4164L61.548 21.5389C61.7254 21.9614 61.8856 22.3164 62.0242 22.6037C62.1904 22.9518 62.3844 23.2866 62.6043 23.6051C62.7965 23.9101 63.065 24.1624 63.3846 24.3383C63.7041 24.5142 64.0643 24.608 64.4311 24.6108C64.824 24.5886 65.1957 24.4297 65.4788 24.1629C65.6062 24.0653 65.7095 23.941 65.7807 23.799C65.8519 23.657 65.8893 23.5012 65.8901 23.3431C65.8905 23.0858 65.8088 22.8347 65.6563 22.6248C65.5926 22.5128 65.4999 22.4192 65.3874 22.3532C65.275 22.2872 65.1468 22.2512 65.0156 22.2488C64.9 22.2535 64.7854 22.2705 64.6736 22.2995C64.8105 22.4604 64.8815 22.6651 64.8727 22.8741C64.8727 23.3558 64.5957 23.5967 64.0632 23.5967C63.8525 23.612 63.644 23.5463 63.4822 23.4137C63.3205 23.2811 63.2182 23.092 63.1974 22.8868C63.1778 22.8036 63.1676 22.7186 63.167 22.6333C63.1642 22.4838 63.1976 22.3359 63.2645 22.2015C63.3315 22.0671 63.4301 21.9501 63.5523 21.86C63.7863 21.6658 64.0851 21.5621 64.3922 21.5685C64.5497 21.573 64.7063 21.5929 64.8597 21.6276C65.4947 21.7713 65.9564 22.2488 66.245 23.06Z" fill="#112219"/>
<path d="M71.1846 23.0093C70.6795 22.9191 70.4371 22.8346 70.4573 22.7557C70.2978 22.6596 70.1522 22.543 70.0244 22.4092C69.8197 22.2422 69.5782 22.1237 69.3187 22.0628L69.2971 22.105C69.3527 22.1493 69.3981 22.2045 69.4302 22.2672C69.4623 22.3298 69.4804 22.3984 69.4832 22.4684C69.471 22.6356 69.406 22.7951 69.2971 22.9247C69.2502 22.9948 69.1859 23.052 69.1102 23.0912C69.0345 23.1304 68.9499 23.1502 68.8642 23.1487C68.7435 23.1507 68.6243 23.1218 68.5187 23.0646C68.4131 23.0075 68.3247 22.9243 68.2624 22.8233C68.209 22.7437 68.1747 22.6534 68.1619 22.559C68.1492 22.4646 68.1584 22.3687 68.1888 22.2783C68.219 22.0715 68.3302 21.8842 68.4989 21.7558C68.6676 21.6273 68.8808 21.5677 69.0936 21.5895C69.3929 21.5922 69.6849 21.6803 69.9335 21.843C70.4183 22.1473 70.6694 22.3459 70.6911 22.4388C70.8536 22.3926 70.9974 22.2981 71.1023 22.1684C71.1904 22.0245 71.2326 21.8583 71.2236 21.6909C71.2116 21.5389 71.1578 21.3929 71.0677 21.2684C71.0346 21.2223 70.9894 21.1859 70.9368 21.1628C70.8842 21.1398 70.8263 21.131 70.769 21.1374H66.9767L66.4355 20.6177H72.6781L73.2106 21.1374H71.479C71.5136 21.1374 71.5699 21.2388 71.6435 21.4501C71.7273 21.6511 71.7868 21.861 71.821 22.0754C71.8037 22.3117 71.6917 22.5319 71.5093 22.6881L71.1846 23.0093Z" fill="#112219"/>
<path d="M71.7561 23.0301C71.7863 23.3489 71.7965 23.6693 71.7864 23.9893V26.6978L71.5872 26.5245C71.5136 26.3791 71.4312 26.238 71.3405 26.102C71.2474 25.9953 71.1299 25.9115 70.9976 25.8572C70.8653 25.8029 70.7218 25.7796 70.5786 25.7893C70.3864 25.7955 70.1952 25.8181 70.0071 25.8569C69.83 25.8954 69.6508 25.9236 69.4703 25.9414C69.2246 25.9508 68.9796 25.9091 68.7517 25.8189C68.5156 25.7448 68.3115 25.5961 68.1716 25.3963C67.9788 25.1172 67.8708 24.7905 67.8599 24.4541C67.8653 24.2002 67.9136 23.949 68.0027 23.7104C68.0677 23.5456 68.1023 23.4611 68.1196 23.4696L68.3577 23.6512C68.2925 23.8407 68.2574 24.0388 68.2538 24.2386C68.2394 24.3882 68.2631 24.5391 68.3227 24.6776C68.3824 24.8162 68.4762 24.9383 68.5958 25.033C68.7892 25.1682 69.2394 25.202 69.9465 25.1344H70.2495C70.531 25.11 70.8117 25.1883 71.0374 25.3541C71.1213 25.4315 71.2007 25.5134 71.2755 25.5992V23.4865C71.2678 23.3764 71.243 23.2681 71.2019 23.1653C71.1543 23.0217 71.1067 22.9541 71.0591 22.9667C71.043 22.959 71.0249 22.956 71.0071 22.9583C70.9143 22.9679 70.8236 22.9922 70.7387 23.0301C70.5942 23.116 70.4606 23.2181 70.3405 23.3343C70.2246 23.471 70.1497 23.6362 70.124 23.8118C70.2009 23.7869 70.2811 23.7727 70.3621 23.7696C70.4194 23.7694 70.4761 23.7818 70.5278 23.8059C70.5795 23.8301 70.625 23.8653 70.6608 23.909C70.737 23.9945 70.7785 24.1042 70.7777 24.2175C70.7802 24.2999 70.7618 24.3816 70.724 24.4553C70.6862 24.5291 70.6303 24.5925 70.5612 24.64C70.427 24.7399 70.2625 24.7934 70.0937 24.7921C69.9374 24.7903 69.7858 24.74 69.6608 24.6484C69.5329 24.5773 69.436 24.4631 69.388 24.3273C69.3538 24.2076 69.3363 24.084 69.3361 23.9597C69.3295 23.7217 69.4075 23.4888 69.5569 23.3005L69.9292 22.878L70.4097 22.5949C70.4833 22.5062 70.6651 22.4639 70.9465 22.4639C71.1267 22.4575 71.3039 22.5096 71.4504 22.612C71.5969 22.7145 71.7044 22.8616 71.7561 23.0301Z" fill="#112219"/>
<path d="M75.4749 21.1329H74.0376V26.3386L73.5268 25.8358V21.1329H72.8731L72.3103 20.6132H73.609L73.5224 20.2287C73.4321 19.948 73.2848 19.6879 73.0895 19.4639C72.9273 19.2493 72.719 19.0719 72.4791 18.9441C71.9236 18.6608 71.305 18.5157 70.6782 18.5216C70.1898 18.4879 69.7038 18.6143 69.2972 18.8808C69.2786 18.898 69.2643 18.9191 69.2553 18.9425C69.2463 18.9659 69.2428 18.9911 69.2453 19.016C69.2453 19.1723 69.4098 19.2568 69.7345 19.2737C70.4877 19.2991 70.9077 19.3202 70.9899 19.3329C71.7836 19.4343 72.1862 19.7765 72.1977 20.3597C72.1988 20.4626 72.1842 20.5651 72.1544 20.6639H71.6047C71.7692 20.5329 71.8557 20.4146 71.8557 20.3089C71.8514 20.2449 71.8256 20.184 71.7821 20.1357C71.6927 20.0202 71.4329 19.9526 71.0029 19.9329L70.1371 19.8906C69.8427 19.8601 69.5604 19.76 69.3145 19.5991C69.2017 19.5355 69.1084 19.4436 69.0445 19.3328C68.9805 19.2221 68.9482 19.0966 68.9509 18.9695C68.9476 18.8945 68.9619 18.8197 68.9927 18.7509C69.0234 18.6821 69.0698 18.621 69.1284 18.5723C69.2403 18.4758 69.3622 18.3908 69.492 18.3188C69.8257 18.1848 70.1745 18.0898 70.531 18.0357C70.641 18.0159 70.7526 18.006 70.8644 18.0061C71.3078 18.0268 71.7456 18.1123 72.1631 18.2596C72.4815 18.3746 72.7752 18.5465 73.0289 18.7667C73.2402 18.9417 73.4214 19.1485 73.5657 19.3794C73.7245 19.609 73.8457 19.8613 73.9251 20.1273L74.0593 20.6005H74.9944L75.4749 21.1329Z" fill="#112219"/>
<path d="M83.0897 21.1329H81.8299V26.364L81.5572 25.9794C81.3055 25.305 80.8261 24.7342 80.1978 24.3611C79.8036 24.1254 79.3593 23.9809 78.8991 23.9386L78.2324 23.0174C78.6462 22.7252 79.0801 22.4612 79.5311 22.2273C80.1163 21.9285 80.7241 21.6742 81.3494 21.4667V21.1245H77.9337L77.4229 20.6047H82.5658L83.0897 21.1329ZM81.3017 24.9358V22.278C80.5923 22.5317 79.9187 22.8725 79.2974 23.2921C80.1296 23.619 80.8322 24.1981 81.3017 24.9442V24.9358Z" fill="#112219"/>
<path d="M85.2932 21.133H83.9945V26.4444L83.4966 25.9162V22.1133C83.5044 21.9254 83.453 21.7396 83.3494 21.5809C83.2633 21.4404 83.1417 21.3238 82.9961 21.2424C82.8505 21.1611 82.686 21.1176 82.5182 21.1161H82.384L81.8516 20.5964C82.1246 20.5624 82.401 20.5624 82.6741 20.5964C82.8588 20.6264 83.031 20.7071 83.1705 20.8291C83.3101 20.951 83.4111 21.1092 83.462 21.2852C83.5557 21.4872 83.6367 21.6946 83.7044 21.9063C83.6143 21.4442 83.5536 20.9771 83.5226 20.5077C83.5053 20.2711 83.4966 19.9894 83.4966 19.6626L83.6958 19.8274C83.7183 20.014 83.7649 20.1972 83.8343 20.3725C83.8815 20.4445 83.9351 20.5124 83.9945 20.5753H84.7737L85.2932 21.133Z" fill="#112219"/>
<path d="M87.2024 22.8741C87.0969 23.0105 86.9586 23.1193 86.7998 23.191C86.6812 23.2211 86.5586 23.234 86.4362 23.2291C86.2778 23.2309 86.1209 23.2003 85.9754 23.1392C85.83 23.078 85.6994 22.9877 85.592 22.8741C85.4774 22.7642 85.3871 22.6325 85.3268 22.4871C85.2664 22.3418 85.2374 22.1858 85.2413 22.0291C85.2507 21.8555 85.299 21.6861 85.3828 21.5328C85.4665 21.3795 85.5838 21.246 85.7262 21.1417C85.9074 20.9777 86.1457 20.8871 86.3929 20.8882C86.5474 20.8878 86.7001 20.92 86.8406 20.9828C86.9811 21.0455 87.106 21.1372 87.2067 21.2516C87.4267 21.4803 87.5476 21.783 87.5444 22.0967C87.5358 22.3888 87.4136 22.6668 87.2024 22.8741ZM88.4405 26.8629L87.8171 26.2713C87.1072 25.6567 86.3535 25.0919 85.5617 24.5812V23.4446C85.8257 23.6474 86.2154 23.9896 86.7349 24.4798C87.3384 25.0991 87.9078 25.7493 88.4405 26.4277V26.8629ZM86.6526 22.4812C86.7848 22.4061 86.8928 22.2963 86.9643 22.1643C87.0015 22.054 87.0162 21.9378 87.0076 21.822C87.0076 21.5431 86.8907 21.3995 86.6656 21.3995C86.4218 21.4316 86.197 21.545 86.0292 21.7206C85.9437 21.8023 85.8765 21.9005 85.8317 22.0088C85.787 22.1172 85.7658 22.2334 85.7695 22.3502C85.7695 22.5995 85.8647 22.7262 86.0725 22.7262C86.2858 22.7001 86.4871 22.6151 86.6526 22.4812Z" fill="#112219"/>
<path d="M93.9515 21.1202H92.6528V26.3386L92.1203 25.8442V23.0174C92.1177 22.9269 92.0955 22.838 92.0552 22.7564C92.015 22.6749 91.9575 22.6025 91.8865 22.5442C91.8233 22.4785 91.7457 22.4276 91.6595 22.3954C91.5732 22.3632 91.4806 22.3505 91.3887 22.3583C91.3275 22.3644 91.269 22.3859 91.2189 22.4207C91.1688 22.4555 91.1289 22.5024 91.1029 22.5569C91.0427 22.6698 91.0215 22.7988 91.0423 22.9245L91.0813 23.178L90.8648 23.2625C90.8648 23.2287 90.8648 23.1484 90.7609 23.0174C90.6818 22.8775 90.5843 22.7482 90.4709 22.6329C90.3732 22.5404 90.2571 22.4683 90.1298 22.421C90.0025 22.3738 89.8667 22.3524 89.7306 22.3583C89.4855 22.3588 89.25 22.451 89.0726 22.616C88.9829 22.695 88.9111 22.7915 88.8619 22.8992C88.8127 23.0069 88.7871 23.1235 88.7869 23.2414C88.7822 23.3327 88.7963 23.4239 88.8284 23.5098C88.8605 23.5957 88.9099 23.6744 88.9736 23.7414C89.0374 23.8083 89.1142 23.8621 89.1996 23.8996C89.285 23.9371 89.3772 23.9576 89.4709 23.9597C89.3736 23.8504 89.3185 23.7115 89.315 23.5667C89.3127 23.4923 89.3271 23.4182 89.3569 23.3496C89.3868 23.281 89.4316 23.2196 89.4882 23.1696C89.6061 23.0649 89.7618 23.0102 89.9211 23.0174C90.1722 23.0174 90.354 23.1569 90.4709 23.44C90.5572 23.5947 90.5877 23.7733 90.5575 23.947C90.4989 24.0994 90.3913 24.2291 90.2508 24.3167C90.1103 24.4044 89.9445 24.4451 89.7782 24.4329C89.4479 24.4407 89.1236 24.346 88.8518 24.1625C88.5883 23.9786 88.4094 23.7008 88.354 23.3893C88.3241 23.2603 88.3096 23.1285 88.3107 22.9963C88.3063 22.6633 88.4076 22.3371 88.6007 22.0625C88.6884 21.9231 88.8103 21.8072 88.9555 21.7253C89.1006 21.6434 89.2643 21.5981 89.4319 21.5935C89.613 21.59 89.7928 21.6236 89.9598 21.692C90.1268 21.7604 90.2773 21.8621 90.4016 21.9907L90.5878 22.2231C90.6074 22.0696 90.6883 21.9299 90.8129 21.8343C90.8613 21.7742 90.9222 21.7246 90.9916 21.689C91.061 21.6533 91.1373 21.6323 91.2155 21.6273C91.3939 21.6309 91.5653 21.6952 91.7004 21.809C91.7566 21.885 91.8129 21.9569 91.8779 22.0329C91.9979 22.1702 92.0851 22.3319 92.1333 22.5062V21.1202H88.1115L87.5747 20.6047H93.4147L93.9515 21.1202Z" fill="#112219"/>
<path d="M96.1896 21.1332H94.8909V26.4446L94.3844 25.9164V22.1135C94.3935 21.926 94.3436 21.7402 94.2415 21.5811C94.1548 21.4411 94.033 21.325 93.8876 21.2437C93.7421 21.1624 93.5779 21.1185 93.4103 21.1163H93.2718L92.7437 20.5966C93.0167 20.5627 93.2931 20.5627 93.5662 20.5966C93.7582 20.6236 93.9379 20.7048 94.0832 20.8302C94.2286 20.9556 94.3332 21.1196 94.3844 21.3022C94.4761 21.5046 94.5556 21.712 94.6225 21.9234C94.5363 21.4608 94.477 20.9939 94.445 20.5248C94.4233 20.2881 94.4147 20.0135 94.4147 19.6797L94.6138 19.8445C94.6265 20.0416 94.6658 20.2363 94.7307 20.4234C94.778 20.4954 94.8316 20.5632 94.8909 20.6262H95.6701L96.1896 21.1332Z" fill="#112219"/>
<path d="M99.3717 21.1121C99.0739 21.1255 98.7808 21.1899 98.5058 21.3023C98.231 21.4038 97.974 21.5464 97.7439 21.7248C97.233 22.1399 96.9109 22.7353 96.8478 23.3812C96.7685 23.7996 96.7612 24.228 96.8261 24.6488C96.8763 24.872 96.9734 25.0827 97.1113 25.2674C97.2491 25.4521 97.4247 25.6069 97.627 25.722C97.6932 25.7569 97.7686 25.7716 97.8435 25.7643C97.9387 25.7643 97.982 25.7643 97.969 25.722C97.956 25.6798 97.8694 25.6629 97.7915 25.5403C97.734 25.461 97.6915 25.3723 97.666 25.2784C97.6461 25.1593 97.6683 25.0372 97.7289 24.932C97.7894 24.8268 97.8848 24.7448 97.9993 24.6995C98.0868 24.6477 98.187 24.6199 98.2894 24.6192C98.343 24.6163 98.3965 24.6246 98.4466 24.6435C98.4966 24.6625 98.5419 24.6916 98.5794 24.7291C98.6862 24.7783 98.7752 24.8579 98.8347 24.9575C98.8942 25.057 98.9215 25.1719 98.9128 25.2868C98.9146 25.3995 98.8911 25.5112 98.844 25.6142C98.7968 25.7171 98.7272 25.8087 98.64 25.8826C98.4611 26.0372 98.2297 26.1215 97.9907 26.1192C97.7058 26.1324 97.4253 26.0471 97.1984 25.8784C96.7463 25.5044 96.4405 24.9894 96.3326 24.4206C96.2768 24.1736 96.2477 23.9215 96.246 23.6685C96.2669 22.7262 96.6412 21.8241 97.298 21.1332H95.7265L95.207 20.6135H98.8652L99.3717 21.1121Z" fill="#112219"/>
<path d="M104.264 21.1332H100.047V23.2459C100.175 23.1557 100.297 23.0569 100.411 22.9502C100.709 22.6924 100.891 22.5276 100.96 22.4854C101.387 22.1604 101.863 21.9037 102.372 21.7248L103.277 22.384C102.853 23.116 102.615 23.9357 102.58 24.7755C102.58 24.9283 102.592 25.0808 102.614 25.2319C102.643 25.5966 102.695 25.9593 102.77 26.3178L102.419 26.1446L102.289 25.5361C102.18 25.0532 102.125 24.5602 102.125 24.0657C102.123 23.6197 102.171 23.1748 102.268 22.7389C101.895 22.8597 101.55 23.049 101.25 23.2967C100.786 23.677 100.419 24.1591 100.181 24.7037L99.4842 24.0065V21.1332H98.9561L98.4236 20.6135H103.735L104.264 21.1332Z" fill="#112219"/>
<path d="M109.658 21.142H108.471V26.3139L107.943 25.7984L107.974 22.6336C107.929 22.3811 107.818 22.144 107.653 21.9448C107.402 21.5871 107.173 21.4181 106.965 21.4378C106.839 21.4531 106.718 21.498 106.614 21.5688C106.563 21.594 106.52 21.6319 106.489 21.6786C106.458 21.7253 106.44 21.7793 106.437 21.835C106.589 21.9456 106.733 22.0656 106.87 22.1941C106.964 22.2733 107.042 22.3702 107.098 22.479C107.153 22.5879 107.186 22.7065 107.194 22.8279C107.184 22.9494 107.163 23.0697 107.129 23.1871C107.047 23.3984 106.848 23.504 106.528 23.504C106.363 23.4879 106.206 23.4288 106.072 23.3329C105.939 23.237 105.835 23.1078 105.77 22.9589C105.712 23.0951 105.622 23.2167 105.509 23.3147C105.396 23.4127 105.262 23.4846 105.116 23.5251C105.059 23.5448 104.999 23.5548 104.939 23.5547C104.64 23.5547 104.441 23.3815 104.337 23.0307C104.316 22.9637 104.306 22.8938 104.307 22.8237C104.32 22.672 104.366 22.5247 104.44 22.3909C104.515 22.2571 104.617 22.1398 104.74 22.0462C104.774 22.0124 104.865 21.9448 105.012 21.835C105.068 21.7883 105.135 21.7576 105.207 21.7462C105.132 21.5927 105.034 21.4504 104.917 21.3237C104.79 21.2141 104.628 21.15 104.458 21.142H103.818L103.298 20.6265H104.341C104.568 20.6219 104.789 20.6886 104.973 20.8166L105.225 21.049C105.373 21.1893 105.475 21.3707 105.515 21.5688C105.583 21.4031 105.678 21.2491 105.796 21.1124C106.006 20.9095 106.268 20.7639 106.554 20.6899C106.628 20.6677 106.705 20.6521 106.783 20.6434C106.922 20.6434 107.129 20.8082 107.406 21.142C107.489 21.2434 107.623 21.442 107.809 21.7336C107.941 21.9208 108.057 22.1187 108.155 22.3251L108.008 20.6814L107.956 19.7307C108.069 19.8264 108.175 19.928 108.277 20.0349C108.322 20.0913 108.345 20.1618 108.342 20.2335C108.331 20.2937 108.331 20.3551 108.342 20.4152C108.372 20.4744 108.415 20.5258 108.47 20.5655C108.524 20.6051 108.587 20.6318 108.653 20.6434H109.086L109.658 21.142Z" fill="#112219"/>
<path d="M118 21.1332H116.731V26.3389L116.225 25.7643V23.415C116.177 23.2564 116.079 23.117 115.943 23.0178C115.825 22.9085 115.673 22.8402 115.511 22.8234C115.398 22.8319 115.289 22.8682 115.194 22.9288C115.1 22.9893 115.022 23.0723 114.969 23.1699C114.407 24.015 114.047 24.4375 113.896 24.4375C113.834 24.4432 113.772 24.4432 113.71 24.4375C113.467 24.4375 113.324 24.4079 113.277 24.3446C113.134 24.3446 112.943 24.1122 112.705 23.7065L112.497 23.3305L112.839 23.0093C112.863 23.1145 112.902 23.2157 112.956 23.3093C112.998 23.4096 113.057 23.5024 113.13 23.584C113.155 23.6136 113.187 23.6378 113.223 23.6552C113.259 23.6726 113.298 23.6829 113.337 23.6854C113.454 23.6854 113.623 23.546 113.84 23.2629L114.272 22.6755C114.262 22.5084 114.235 22.3428 114.19 22.1811C114.14 21.996 114.027 21.8329 113.87 21.7185C113.713 21.6041 113.52 21.5453 113.324 21.5516C113.13 21.5496 112.936 21.5327 112.744 21.5009C112.559 21.4256 112.406 21.2897 112.311 21.1163L112.164 21.0445L111.701 20.6135H117.476L118 21.1332ZM116.225 22.9164V21.1332H113.865L114.156 21.3614C114.282 21.4678 114.382 21.6013 114.448 21.7515C114.513 21.9018 114.542 22.0647 114.532 22.2276C114.539 22.2908 114.539 22.3546 114.532 22.4178C114.654 22.3677 114.768 22.3008 114.87 22.2192C114.971 22.1284 115.095 22.0644 115.229 22.0333C115.395 22.0581 115.548 22.137 115.662 22.2572C115.863 22.4653 116.051 22.6855 116.225 22.9164Z" fill="#112219"/>
<path d="M122.524 21.1332H121.307V26.2629L121.108 26.0812L120.641 25.2361C120.415 24.8482 120.088 24.5258 119.692 24.3023C119.302 24.0588 118.856 23.9136 118.394 23.8798L117.718 22.9755C118.655 22.3173 119.692 21.8082 120.792 21.4671V21.1332H117.623L117.095 20.6135H122.009L122.524 21.1332ZM119.333 25.8488C119.205 25.8478 119.081 25.803 118.982 25.722C118.881 25.6433 118.811 25.5328 118.783 25.4094C118.764 25.3366 118.763 25.2604 118.779 25.187C118.796 25.1135 118.83 25.045 118.879 24.9868C118.923 24.9269 118.982 24.8781 119.05 24.8443C119.117 24.8105 119.192 24.7928 119.268 24.7924C119.395 24.7932 119.517 24.8365 119.615 24.915C119.713 24.9882 119.782 25.0929 119.809 25.2108C119.826 25.2835 119.826 25.3587 119.811 25.4316C119.795 25.5045 119.763 25.5732 119.718 25.6333C119.682 25.6973 119.628 25.7509 119.564 25.7887C119.499 25.8265 119.426 25.8472 119.35 25.8488H119.333ZM120.775 25.0037V22.2065C120.381 22.3382 119.997 22.4977 119.628 22.684C119.328 22.8531 119.039 23.0394 118.762 23.2417C119.646 23.5578 120.373 24.193 120.792 25.0164L120.775 25.0037Z" fill="#112219"/>
<path d="M128.584 21.133H125.801V21.5049C125.835 21.4974 125.87 21.4974 125.905 21.5049C126.122 21.5114 126.335 21.5604 126.532 21.6489C126.729 21.7375 126.906 21.8638 127.052 22.0204C127.376 22.3096 127.603 22.6884 127.701 23.1063C127.734 23.2449 127.751 23.3866 127.753 23.5288C127.757 23.7684 127.681 24.0028 127.537 24.1964C127.468 24.295 127.375 24.3753 127.266 24.4299C127.157 24.4845 127.036 24.5117 126.913 24.5091C126.822 24.511 126.731 24.4948 126.646 24.4614C126.561 24.428 126.484 24.3781 126.42 24.3148C126.356 24.2629 126.305 24.1983 126.269 24.1255C126.233 24.0526 126.214 23.973 126.212 23.8922C126.219 23.7895 126.25 23.6897 126.304 23.6009C126.357 23.5122 126.431 23.4368 126.519 23.3809C126.616 23.3494 126.717 23.3323 126.818 23.3302C127.022 23.3533 127.211 23.4461 127.351 23.5922C127.355 23.5628 127.355 23.5329 127.351 23.5035C127.345 23.3435 127.306 23.1864 127.237 23.0412C127.168 22.8961 127.069 22.7659 126.948 22.6584C126.801 22.5049 126.619 22.3868 126.417 22.3135C126.215 22.2402 125.998 22.2136 125.783 22.2359V26.2796L125.597 26.0979L125.441 25.6542C125.331 25.3963 125.176 25.159 124.983 24.9528C124.801 24.7328 124.588 24.5392 124.351 24.3781C123.964 24.1488 123.531 24.0046 123.082 23.9556L122.363 23.1105C122.667 22.8727 122.989 22.6566 123.325 22.464C123.938 22.1022 124.591 21.8101 125.273 21.5936V21.2006H122.112L121.584 20.6809H128.078L128.584 21.133ZM125.29 24.8641V22.2063C124.874 22.3535 124.474 22.5403 124.095 22.764C124.095 22.764 123.866 22.9246 123.433 23.2204C124.227 23.5399 124.881 24.1217 125.281 24.8641H125.29Z" fill="#112219"/>
<path d="M130.818 21.133H129.52V26.4444L129.017 25.9162V22.1133C129.027 21.9258 128.977 21.74 128.875 21.5809C128.788 21.441 128.666 21.3248 128.521 21.2435C128.375 21.1622 128.211 21.1184 128.043 21.1161H127.905L127.377 20.5964C127.65 20.5625 127.926 20.5625 128.199 20.5964C128.384 20.6274 128.555 20.7084 128.695 20.8302C128.834 20.952 128.935 21.1097 128.987 21.2852C129.079 21.4875 129.158 21.6949 129.225 21.9063C129.139 21.4437 129.08 20.9768 129.048 20.5077C129.048 20.2711 129.017 19.9964 129.017 19.6626L129.217 19.8274C129.237 20.0316 129.287 20.2321 129.364 20.4232C129.409 20.4953 129.461 20.5632 129.52 20.626H130.316L130.818 21.133Z" fill="#112219"/>
<path d="M135.351 21.1326H134.134V26.2622L133.935 26.0805L133.468 25.2354C133.243 24.8466 132.916 24.524 132.52 24.3016C132.129 24.0581 131.683 23.9129 131.221 23.8791L130.546 22.9748C131.482 22.3098 132.521 21.7949 133.624 21.4495V21.1157H130.45L129.922 20.5959H134.818L135.351 21.1326ZM132.16 25.8481C132.033 25.8476 131.91 25.8026 131.814 25.7214C131.712 25.6433 131.641 25.5326 131.615 25.4087C131.595 25.3356 131.594 25.2591 131.612 25.1855C131.629 25.1119 131.664 25.0436 131.714 24.9861C131.758 24.9254 131.817 24.8761 131.885 24.8422C131.953 24.8084 132.028 24.7911 132.104 24.7918C132.229 24.7932 132.35 24.8364 132.446 24.9143C132.544 24.9876 132.613 25.0923 132.641 25.2101C132.657 25.2828 132.658 25.3581 132.642 25.4309C132.626 25.5038 132.595 25.5725 132.55 25.6326C132.511 25.6998 132.455 25.7554 132.386 25.7934C132.317 25.8313 132.239 25.8503 132.16 25.8481ZM133.606 25.003V22.2058C133.219 22.3369 132.843 22.4965 132.481 22.6833C132.18 22.8512 131.891 23.0375 131.615 23.241C132.484 23.5661 133.196 24.2 133.606 25.0157V25.003Z" fill="#112219"/>
</g>
<g clip-path="url(#clip1_68_19679)">
<path d="M15.351 29.7143C23.7295 29.7143 30.5216 23.0852 30.5216 14.9078C30.5216 6.73041 23.7295 0.101318 15.351 0.101318C6.97253 0.101318 0.18042 6.73041 0.18042 14.9078C0.18042 23.0852 6.97253 29.7143 15.351 29.7143Z" fill="white"/>
<path d="M15.3701 30C6.89551 30 0.0012207 23.2705 0.0012207 14.9987C0.0012207 6.72689 6.89485 0 15.3701 0C23.8453 0 30.7376 6.72818 30.7376 14.9987C30.7376 23.2693 23.8434 30 15.3701 30ZM15.3701 0.385753C7.11355 0.385753 0.39646 6.94355 0.39646 14.9987C0.39646 23.0539 7.11552 29.6142 15.3701 29.6142C23.6247 29.6142 30.3424 23.0565 30.3424 14.9987C30.3424 6.94098 23.6253 0.385753 15.3701 0.385753Z" fill="#039949"/>
<path d="M2.09072 13.7655C1.90232 13.9481 1.61907 14.3223 1.54134 14.9446C1.48798 15.954 2.3002 15.9778 2.29954 15.9733L2.54458 15.6518C2.54458 15.657 2.16911 15.2744 2.32127 14.9189C2.48332 14.5769 2.87132 15.2564 3.01031 15.576L3.28236 15.1523C3.26458 15.1523 3.0999 14.4727 2.66645 14.3165C2.23301 14.1603 2.0288 14.9253 2.08216 15.1729C2.08216 15.1767 1.71458 14.9086 2.04592 14.2085C2.15264 13.9757 2.28966 13.8542 2.41943 13.7899C2.75809 13.8211 3.09402 13.8759 3.42465 13.9539C3.41082 13.9494 3.70922 13.5038 3.83702 13.399L2.06832 13.2274L2.1612 12.643L1.91089 12.5967C1.85687 12.9766 1.77519 13.3528 1.74554 13.7334C1.74554 13.7398 1.88651 13.7481 2.09072 13.7655Z" fill="#039949"/>
<path d="M3.00131 10.3278C2.46641 10.5747 1.97895 11.2472 2.14891 11.9164C2.31557 12.6365 3.0013 12.4115 3.26348 12.0084C3.50985 11.5988 3.42026 10.999 3.07047 11.1167C2.70356 11.2401 2.72398 11.7004 2.72003 11.6953C2.71607 11.6901 2.39066 11.8477 2.49276 11.3172C2.53426 11.1176 2.62688 10.9315 2.762 10.7762C2.89711 10.621 3.07032 10.5016 3.26546 10.4294C3.57545 10.5475 3.87657 10.6867 4.1666 10.846C4.17385 10.846 4.54405 10.4802 4.7061 10.4172L3.05137 9.78259L3.31486 9.25218L3.08628 9.1416C2.90265 9.47995 2.74436 9.83083 2.61265 10.1915C2.61265 10.1915 2.77668 10.2442 3.00131 10.3278Z" fill="#039949"/>
<path d="M17.3623 2.05075L16.994 1.9961L16.8366 3.76092C16.7279 3.62848 16.2661 3.37517 16.2648 3.37517C16.3729 2.96434 16.4328 2.28927 16.4532 1.9466C16.0125 1.93245 15.5725 1.87266 15.1311 1.90802C15.2425 2.04561 15.3242 2.32078 14.8868 2.67503C15.0742 2.71118 15.2496 2.79152 15.3979 2.90905C15.4602 2.9673 15.5145 3.03322 15.5593 3.10514L15.5547 4.21482C15.426 4.10531 15.2588 4.04885 15.0883 4.05731C14.8143 4.0766 14.6272 4.33505 14.2359 4.18589C13.7254 4.00202 13.6576 3.56933 13.6602 3.56933C13.6628 3.56933 13.9237 3.9403 14.3189 3.91265C14.7175 3.91265 14.6068 3.63169 15.1713 3.89336V3.12957C15.1713 3.12957 14.9526 2.69817 14.6134 3.00549C14.6134 3.00549 14.9283 3.11864 14.7662 3.3501C14.6061 3.56869 14.1108 3.5719 13.9678 3.2858C13.8539 3.06785 14.2603 2.54001 14.8828 2.66924C14.8709 2.66217 14.4606 2.29377 14.0482 2.42493C14.0482 2.42493 14.1799 2.59723 13.9454 2.76503C13.6424 2.9862 13.0752 2.83576 13.1859 2.52201C13.348 2.10283 14.255 2.05589 14.5693 2.31563C14.566 2.31563 14.8723 2.08547 14.4375 1.92988C12.6461 2.05248 10.8975 2.52148 9.29347 3.30959L10.1656 4.86482C10.0036 4.82303 9.47528 4.86482 9.47264 4.86096C9.32904 4.46106 8.99309 3.86765 8.81391 3.57126C8.20261 3.88308 7.65059 4.28426 7.09001 4.67258L6.99515 4.80952C7.68485 4.93811 8.09985 4.22254 8.10577 4.21225C8.32483 4.24423 8.54205 4.28715 8.7566 4.34084C8.28231 5.39587 9.13471 5.38751 9.11495 5.39137L9.05303 5.4608C8.37322 5.64146 8.06493 4.72402 8.07284 4.71887C7.48393 5.01783 7.03402 5.04612 6.85023 5.04998C6.49056 5.71347 6.69082 5.95714 6.94575 5.78419C7.25996 5.57267 7.23164 5.29107 7.23164 5.29043C7.66706 5.05512 8.03793 5.10655 8.17297 5.36951C8.29022 5.63632 8.10314 6.40268 7.20924 6.59942C6.33708 6.85659 5.74686 6.20081 5.75279 6.1918C6.98264 6.7595 7.85348 5.79962 7.82581 5.50066C7.79683 5.31872 7.49052 5.50452 7.49645 5.50967C7.46351 5.79512 6.78041 6.33196 6.42799 6.00536C6.33371 5.91989 6.27161 5.80597 6.25166 5.68191C6.23171 5.55785 6.25507 5.43084 6.31798 5.32129C5.87399 5.70126 5.48205 6.13909 5.08615 6.56663L6.4853 7.63195C6.33313 7.6641 5.84896 7.89426 5.84764 7.89683C5.59337 8.03699 5.7238 8.84257 5.15005 9.2534C5.02648 9.34071 4.88506 9.40096 4.73545 9.43003C4.58584 9.4591 4.43156 9.45631 4.28315 9.42185C4.41631 9.40705 4.54478 9.36505 4.66021 9.29859C4.77563 9.23213 4.87542 9.14269 4.95308 9.03609C5.16981 8.71077 5.1507 8.28001 5.39905 8.04985C5.51016 7.95237 5.63973 7.87702 5.78045 7.82804C5.56366 7.61919 5.33446 7.42298 5.09405 7.24041C4.87733 7.69431 4.72451 8.70627 4.7278 8.70113L4.23704 8.96344C4.25812 8.79435 4.29765 8.58605 4.34639 8.37131C4.00254 8.45553 3.91492 8.84771 3.92151 8.84771C3.87079 9.00459 3.65802 9.16146 3.55526 9.12546C3.45249 9.08945 3.14882 8.51661 3.63233 7.82161C3.98673 7.25327 4.63624 7.10347 4.86811 7.06747C4.68366 6.92988 4.55126 6.83923 4.55126 6.83923C7.14403 3.48446 11.4581 1.52934 15.7444 1.65664C15.6272 1.23745 14.9138 1.58785 14.5699 1.36025C14.1885 1.14745 14.7458 0.530241 16.0731 0.781623C17.1185 0.988644 17.0672 1.55313 17.0197 1.74601L17.3972 1.80258L17.3623 2.05075ZM4.38526 8.19194C4.44367 7.91146 4.52586 7.63619 4.63096 7.36899C3.81941 7.6731 4.00385 8.38995 3.9999 8.37388C4.08158 8.29223 4.26932 8.21894 4.38789 8.19129L4.38526 8.19194ZM16.1094 1.67593L16.4842 1.69843C16.5797 1.05551 15.2741 0.775195 14.9935 1.05551C14.6588 1.36733 15.3716 1.07801 15.8037 1.23231C16.1943 1.36025 16.1548 1.57049 16.1094 1.67593Z" fill="#039949"/>
<path d="M10.9245 2.91837C10.7269 3.27648 11.2637 3.59023 11.6649 3.34463C12.0661 3.09903 11.8882 2.82579 11.8843 2.81679C12.6998 2.66827 12.6089 3.64745 11.6135 3.79596C10.5997 3.93097 9.82836 3.31377 9.81519 3.29512C10.6788 4.54818 11.8665 4.25951 12.3691 4.00234C12.8533 3.74517 13.1503 2.96338 12.4692 2.63742C11.7334 2.27609 11.1221 2.55769 10.9245 2.91837Z" fill="#039949"/>
<path d="M21.7988 3.49741L21.0083 5.04621C20.9424 4.9067 20.6163 4.49008 20.613 4.48944C20.8601 4.15962 21.1591 3.58292 21.3139 3.26789L20.8825 3.06087L20.1717 4.56466C19.6612 3.79315 18.7475 3.39776 18.7495 3.42026L18.7462 2.86285C19.7699 2.93614 20.3759 2.87056 20.3818 2.85063C19.8371 2.6494 19.2949 2.44302 18.7231 2.32151L18.789 2.08105C19.7027 2.29903 20.587 2.62076 21.4239 3.03965L21.6729 3.15988C21.9435 3.28365 22.2042 3.42699 22.4529 3.58871L22.3211 3.80151C22.1446 3.70057 21.9786 3.58549 21.7988 3.49741ZM20.2251 3.22932C20.2251 3.22932 19.6632 3.30775 19.3647 3.27753C19.368 3.27753 19.8739 3.73401 19.9385 3.88445L20.2251 3.22932Z" fill="#039949"/>
<path d="M28.9623 16.5557C29.0111 16.1757 29.0163 15.7919 29.0427 15.4106C29.0427 15.4106 28.8872 15.4106 28.6626 15.4106C28.8503 15.2319 29.075 14.8963 29.0842 14.6507C29.0993 14.3292 28.7654 13.9673 28.7654 13.9698C28.9071 13.7529 28.9622 13.4928 28.9202 13.2388C28.6846 11.5198 28.1094 9.86167 27.2266 8.35648C27.0419 8.01874 26.8321 7.69469 26.5988 7.38695L26.4717 7.21208C26.2546 6.89404 26.0123 6.59309 25.7471 6.31199C25.2204 5.70277 24.634 5.14528 23.9962 4.64746L23.8348 4.84034C24.463 5.33047 25.0404 5.87959 25.5587 6.47979C25.4763 6.55115 25.3716 6.63859 25.2563 6.7331C25.224 6.21876 24.7438 6.1384 24.7379 6.15061C24.676 5.82915 24.4085 5.59706 24.259 5.48005C23.9066 5.17851 23.2465 5.20102 23.1642 5.73721C23.0627 6.36728 23.6984 6.81539 23.9843 6.81025C24.2577 6.81025 24.4125 6.46436 24.0818 6.15897C23.7511 5.85358 23.4889 6.08696 23.4889 6.08696C23.2156 5.85358 23.5179 5.44404 24.006 5.75071C24.4942 6.05739 24.4895 6.54408 24.483 6.54536C24.5582 6.51734 24.6409 6.51478 24.7178 6.5381C24.7948 6.56141 24.8614 6.60925 24.9072 6.67395C24.9622 6.75005 24.9967 6.83852 25.0073 6.93112C24.8214 7.07849 24.6263 7.21441 24.423 7.33809C24.423 7.33809 24.5613 7.84599 24.5613 8.00094L25.9091 6.87583L26.2648 7.35673L26.392 7.53354C26.1015 7.73927 25.5534 8.10188 25.172 8.27547C25.1687 8.27547 25.2622 8.7898 25.2379 8.94989L26.7035 7.96558L27.0052 8.47991L27.2477 8.89653C27.0964 8.82572 26.9319 8.78609 26.7642 8.78012C26.5966 8.77414 26.4295 8.80195 26.2734 8.86181C25.6344 9.10869 25.8551 9.79919 25.9058 9.97021C26.0059 10.2184 26.3011 10.545 26.5119 10.3161C26.7483 10.0486 26.3452 9.58895 26.1502 9.58831C26.1502 9.59281 26.0283 9.10483 26.7536 9.22313C27.1488 9.29385 27.4677 9.58124 27.6963 9.82426C27.7785 9.98958 27.8515 10.1591 27.915 10.3322L26.9209 10.7019L26.8867 11.1705C27.131 11.2854 27.3537 11.4398 27.5454 11.627C27.5454 11.627 26.8735 11.7916 26.7912 12.3265L26.8346 12.4217C26.8346 12.4358 27.326 11.753 27.9947 12.4217L28.2858 11.9607C28.299 11.953 27.8247 11.1609 27.5217 11.0143L28.0856 10.8285C28.3394 11.537 28.5225 12.2677 28.6323 13.0106H28.629C28.7087 13.8586 28.4031 13.739 28.4031 13.7403C28.4551 13.5629 28.3135 13.0267 28.0006 13.0202C27.6877 13.0138 27.7074 13.4812 27.7937 13.6908C27.8656 13.8329 27.9581 13.9641 28.0684 14.0804C27.8814 14.317 27.8761 14.6423 27.8774 14.6835C27.8787 14.7246 27.9492 15.0692 28.1831 15.0538C28.4992 15.0384 28.4643 14.3954 28.4643 14.3954C28.4643 14.3954 28.7311 14.2804 28.7035 14.7497C28.6936 15.0422 28.4861 15.2737 28.3267 15.3997C28.0018 15.3862 27.6783 15.3512 27.3583 15.2949C27.3583 15.2949 27.0902 15.7616 26.9828 15.8735L28.7568 15.9339C28.7403 16.1307 28.7443 16.3293 28.7087 16.5241L28.9623 16.5557Z" fill="#039949"/>
<path d="M22.161 4.44465L21.7302 4.60281C22.3573 5.2888 22.466 5.9613 22.466 5.95873L22.5708 5.91179C22.7289 5.46368 22.1808 4.435 22.161 4.44465Z" fill="#039949"/>
<path d="M23.5932 4.88862C23.4292 5.08664 23.0353 5.04999 22.7132 4.80633C22.3752 4.58902 22.202 4.24891 22.337 4.03096C22.4721 3.81301 22.8864 3.81751 23.2546 4.05539C23.6038 4.31706 23.7566 4.69189 23.5932 4.88862ZM23.0004 4.2367C22.5623 4.16405 22.5392 4.36528 22.5392 4.36528C22.4846 4.44693 22.6993 4.60831 23.1321 4.68674C23.5754 4.75747 23.4292 4.33957 23.0023 4.2367H23.0004Z" fill="#039949"/>
<path d="M21.0688 27.0994C20.8343 27.2023 20.692 27.4016 20.752 27.5449C20.8119 27.6883 21.0609 27.7166 21.308 27.6092C21.555 27.5019 21.696 27.3006 21.6235 27.1592C21.551 27.0177 21.3033 26.9965 21.0688 27.0994Z" fill="#039949"/>
<path d="M13.1181 28.1374C12.8652 28.0982 12.6313 28.1869 12.599 28.338C12.5667 28.4891 12.7571 28.6473 13.0232 28.6878C13.2894 28.7283 13.5239 28.6383 13.5443 28.4846C13.5647 28.331 13.3737 28.1767 13.1181 28.1374Z" fill="#039949"/>
<path d="M22.0003 24.7356L22.0359 25.0153C21.883 25.1149 21.7249 25.2067 21.5623 25.2904L22.4087 26.7274C21.3548 26.7814 20.3706 27.0263 20.3739 27.045L20.0228 26.6078C20.8752 26.0472 21.138 25.5431 21.1308 25.5328C20.7217 25.7604 20.2744 25.9186 19.8496 26.1166L19.6842 26.1725L19.3265 26.2902L19.9734 27.9052C19.7909 27.8615 19.1889 27.8139 19.1915 27.8133C19.1553 27.3999 18.9675 26.7846 18.8621 26.4458C18.2943 26.5821 17.7317 26.7524 17.1494 26.8071L17.154 26.8412C17.43 26.8482 18.2291 26.7537 18.5914 27.1363C18.9781 27.5375 18.4722 27.8216 18.2133 27.8911C18.0031 27.9605 17.4768 27.8846 17.6204 27.5696C17.7785 27.2231 18.2199 27.2378 18.2232 27.2443C18.2159 27.225 18.0025 26.9698 17.2067 27.2134L17.3826 28.4485C16.3873 28.1141 15.3768 27.9778 15.3728 27.9984L15.216 27.4642C16.2219 27.2559 16.658 26.8855 16.656 26.872C16.1464 26.9211 15.6346 26.9438 15.1225 26.9402L15.0692 26.937L14.5698 26.91L14.4453 28.5616C13.8569 28.2119 13.2306 27.9268 12.5778 27.7117L12.5409 27.1472C13.5646 27.1652 14.0764 26.872 14.0745 26.8823C13.6232 26.8045 13.1634 26.7589 12.7162 26.6573L12.6793 26.6464L12.5106 26.6039L12.1437 26.5113L11.7485 28.2009C11.6207 28.0666 11.1477 27.7059 11.1556 27.6924C11.2793 27.463 11.3839 27.2244 11.4685 26.9787C11.3816 26.8823 11.2439 26.7749 11.0575 26.8045C10.7466 26.8431 10.213 27.2976 9.80588 26.9787C9.68635 26.8876 9.58893 26.7719 9.52061 26.6397C9.45228 26.5076 9.41473 26.3623 9.41064 26.2143C9.61683 26.5203 9.94224 26.6766 10.2235 26.6001C10.3164 26.5756 10.4837 26.4779 10.6596 26.4201C10.4396 26.0234 9.80325 25.8221 9.79337 25.8318V25.619L9.43963 25.4499L9.56347 25.2332C10.2634 25.596 10.9924 25.9026 11.7432 26.15L12.5739 26.3648L12.7379 26.4085L12.8117 26.4265C13.5573 26.58 14.3154 26.6691 15.0771 26.6927L15.2549 26.7023C16.4499 26.696 17.6384 26.5307 18.7877 26.2111L19.1335 26.0967L19.6006 25.9424L19.7626 25.8884C20.5448 25.5752 21.2941 25.1892 22.0003 24.7356ZM11.6661 26.3873L10.5911 26.0015C10.6887 26.1116 10.7593 26.242 10.7973 26.3828C10.87 26.3642 10.946 26.3623 11.0196 26.3771C11.0932 26.392 11.1623 26.4232 11.2215 26.4683C11.3445 26.5664 11.4473 26.6864 11.5245 26.8219C11.5812 26.6566 11.6293 26.5056 11.6661 26.3873ZM14.0264 27.2874C14.0297 27.2874 13.5185 27.4802 13.2003 27.5027C13.1964 27.5027 13.8103 27.8557 13.9348 27.9939L14.0264 27.2874ZM16.6969 27.2784C16.7015 27.2906 16.2437 27.5915 15.9367 27.668C15.9321 27.668 16.6106 27.9071 16.7595 27.9894L16.6969 27.2784ZM21.3278 25.8903C21.3357 25.9006 21.028 26.3487 20.7724 26.5287C20.7685 26.5287 21.4892 26.5043 21.6571 26.5287L21.3278 25.8903Z" fill="#039949"/>
<path d="M25.7724 14.9983C25.7724 17.0067 25.1622 18.97 24.0189 20.6399C22.8756 22.3097 21.2507 23.6113 19.3495 24.3798C17.4483 25.1483 15.3564 25.3493 13.3382 24.9574C11.3199 24.5655 9.46613 23.5982 8.01116 22.178C6.55618 20.7578 5.5654 18.9483 5.16411 16.9785C4.76282 15.0087 4.96904 12.967 5.7567 11.1115C6.54435 9.25609 7.87807 7.67029 9.58917 6.55468C11.3003 5.43906 13.3119 4.84374 15.3697 4.84399C18.1288 4.84434 20.7747 5.91431 22.7256 7.81857C24.6764 9.72284 25.7724 12.3054 25.7724 14.9983Z" fill="#D81F26"/>
<path d="M10.0417 8.31974C10.0417 8.31974 10.0957 7.9012 10.3625 7.7964C10.6292 7.69161 10.2557 7.06411 10.7926 6.85516C11.3295 6.64621 11.3855 7.27435 11.649 7.32707C11.9125 7.37979 12.3993 7.16891 12.3993 7.5881C12.3993 8.00728 13.0428 8.37117 13.417 8.37117C13.7912 8.37117 14.1146 8.11401 14.0599 8.99931C14.0052 9.88461 14.1673 10.3597 14.4901 10.4645C15.0008 10.6487 15.5016 10.8579 15.9907 11.0914C16.4182 11.3016 17.2245 10.9345 17.6513 11.0914C18.0782 11.2482 18.1342 11.4578 18.6691 11.4051C19.204 11.3524 19.8489 11.0914 20.4918 11.4051C21.1347 11.7189 21.2941 12.0345 21.028 12.0866C20.7619 12.1387 20.5985 12.1908 20.4351 12.6607C20.2718 13.1307 20.007 13.4965 19.4714 13.7595C19.4714 13.7595 19.31 14.1247 18.7198 14.1247C18.1296 14.1247 18.0775 14.2301 17.9168 14.4391C17.7561 14.648 17.594 15.2241 17.3239 15.4864C17.0539 15.7487 17.5914 15.8516 17.7001 16.4283C17.8088 17.005 18.0215 16.7947 18.1289 17.212C18.2363 17.6292 18.7172 17.7347 18.9326 17.4209C19.148 17.1072 19.0386 16.7947 19.3614 16.4283C19.6842 16.0618 19.5761 15.6953 19.9543 15.7481C20.3324 15.8008 20.4351 15.8516 20.3297 16.4283C20.2243 17.005 20.5425 17.682 20.6499 17.8916C20.7572 18.1011 20.8633 18.519 20.918 18.8328C20.9727 19.1465 21.4542 19.043 21.078 19.8795C20.7019 20.7159 21.2935 20.4581 20.9707 21.2399C20.6479 22.0217 21.0254 22.1805 20.7026 22.2853C20.3798 22.3901 20.2217 22.129 20.1137 22.3901C20.0056 22.6511 19.9002 23.2792 19.7922 23.1217C19.6143 22.8646 19.6315 23.0169 19.6315 22.2338C19.6315 21.4508 19.2277 20.9814 19.31 20.0897C19.364 19.5111 18.6137 19.6712 18.6664 18.6251C18.7191 17.5791 18.1842 18.1018 17.7027 17.9957C17.2212 17.8896 16.8464 18.1018 16.4155 17.7874C16.4155 17.7874 16.5598 17.9449 16.237 17.9449C16.237 17.9449 16.0394 18.1018 16.3095 18.6251C16.5796 19.1485 16.3615 19.4609 16.1481 19.6184C15.9347 19.776 15.5058 19.5657 15.1844 19.9843C14.8629 20.4028 14.7549 20.1932 14.5395 20.507C14.3241 20.8207 14.0039 20.507 14.0039 20.3501C14.0039 20.1932 13.6838 20.5089 13.5758 20.6638C13.4677 20.8188 13.0402 20.6143 13.0402 20.2986C13.0402 19.983 12.8255 20.4041 12.7174 20.6124C12.6094 20.8207 12.6647 20.7159 12.2892 20.507C11.9138 20.298 11.7524 21.0856 11.4849 20.4562C11.2175 19.8267 11.593 20.1939 11.539 19.3574C11.4849 18.521 11.2715 18.1018 11.4316 17.4737C11.5917 16.8455 11.3716 17.1959 11.479 16.4109C11.479 16.4109 11.0034 16.3755 10.896 15.8516C10.7887 15.3276 10.4665 15.1726 10.5746 14.6499C10.6826 14.1272 11.2182 14.5451 11.2182 13.7595C11.2182 12.9738 11.1108 13.0272 10.8427 13.0272C10.5746 13.0272 9.98632 12.5566 9.7169 12.1914C9.44748 11.8262 9.61085 11.3023 9.87829 11.3023C10.1457 11.3023 10.3592 11.3537 10.8427 10.831C11.3262 10.3083 11.4316 10.831 11.8071 10.57C12.1825 10.3089 11.7544 9.7856 11.539 9.62873C11.3235 9.47186 10.5212 9.15682 10.5212 8.84436C10.5212 8.5319 9.9883 8.63349 10.0417 8.31974Z" fill="#FFF100"/>
<path d="M23.8198 22.1987L24.9304 22.6603L25.7229 21.7725L25.6162 22.9464L26.7262 23.4093L25.5503 23.6729L25.4416 24.8456L24.8218 23.835L23.6453 24.0966L24.4384 23.2094L23.8198 22.1987Z" fill="#EC1C24"/>
<path d="M25.8914 18.7925L27.0962 18.8382L27.5164 17.7336L27.8425 18.8671L29.05 18.9153L28.0448 19.5705L28.3715 20.7046L27.4236 19.9749L26.4183 20.6274L26.838 19.5223L25.8914 18.7925Z" fill="#EC1C24"/>
<path d="M4.85938 18.8282L3.91541 19.5605L4.33568 20.6657L3.3298 20.0138L2.38386 20.7461L2.70664 19.6113L1.70142 18.9587L2.90821 18.9079L3.23165 17.7732L3.6539 18.8771L4.85938 18.8282Z" fill="#EC1C24"/>
<path d="M6.94226 22.2274L6.32701 23.24L7.12341 24.1259L5.94494 23.8674L5.32837 24.8794L5.21639 23.7061L4.03857 23.4457L5.14722 22.9802L5.03721 21.8069L5.83362 22.6922L6.94226 22.2274Z" fill="#EC1C24"/>
</g>
<defs>
<clipPath id="clip0_68_19679">
<rect width="99.0546" height="23.8397" fill="white" transform="translate(36.374 3.02222)"/>
</clipPath>
<clipPath id="clip1_68_19679">
<rect width="30.7364" height="30" fill="white"/>
</clipPath>
</defs>
</svg>
